%TF.GenerationSoftware,KiCad,Pcbnew,(6.0.8-1)-1*%
%TF.CreationDate,2023-09-26T17:12:20+03:00*%
%TF.ProjectId,A410_Podule_Ram_RPI,41343130-5f50-46f6-9475-6c655f52616d,rev?*%
%TF.SameCoordinates,Original*%
%TF.FileFunction,Soldermask,Bot*%
%TF.FilePolarity,Negative*%
%FSLAX46Y46*%
G04 Gerber Fmt 4.6, Leading zero omitted, Abs format (unit mm)*
G04 Created by KiCad (PCBNEW (6.0.8-1)-1) date 2023-09-26 17:12:20*
%MOMM*%
%LPD*%
G01*
G04 APERTURE LIST*
G04 Aperture macros list*
%AMRoundRect*
0 Rectangle with rounded corners*
0 $1 Rounding radius*
0 $2 $3 $4 $5 $6 $7 $8 $9 X,Y pos of 4 corners*
0 Add a 4 corners polygon primitive as box body*
4,1,4,$2,$3,$4,$5,$6,$7,$8,$9,$2,$3,0*
0 Add four circle primitives for the rounded corners*
1,1,$1+$1,$2,$3*
1,1,$1+$1,$4,$5*
1,1,$1+$1,$6,$7*
1,1,$1+$1,$8,$9*
0 Add four rect primitives between the rounded corners*
20,1,$1+$1,$2,$3,$4,$5,0*
20,1,$1+$1,$4,$5,$6,$7,0*
20,1,$1+$1,$6,$7,$8,$9,0*
20,1,$1+$1,$8,$9,$2,$3,0*%
G04 Aperture macros list end*
%ADD10R,1.600000X1.600000*%
%ADD11O,1.600000X1.600000*%
%ADD12R,1.700000X1.700000*%
%ADD13O,1.700000X1.700000*%
%ADD14C,2.850000*%
%ADD15RoundRect,0.249999X0.525001X-0.525001X0.525001X0.525001X-0.525001X0.525001X-0.525001X-0.525001X0*%
%ADD16C,1.550000*%
%ADD17C,1.600000*%
G04 APERTURE END LIST*
D10*
%TO.C,U2*%
X112786000Y-50541000D03*
D11*
X112786000Y-53081000D03*
X112786000Y-55621000D03*
X112786000Y-58161000D03*
X112786000Y-60701000D03*
X112786000Y-63241000D03*
X112786000Y-65781000D03*
X120406000Y-65781000D03*
X120406000Y-63241000D03*
X120406000Y-60701000D03*
X120406000Y-58161000D03*
X120406000Y-55621000D03*
X120406000Y-53081000D03*
X120406000Y-50541000D03*
%TD*%
D12*
%TO.C,J2*%
X131821000Y-72776000D03*
D13*
X134361000Y-72776000D03*
X131821000Y-75316000D03*
X134361000Y-75316000D03*
X131821000Y-77856000D03*
X134361000Y-77856000D03*
X131821000Y-80396000D03*
X134361000Y-80396000D03*
X131821000Y-82936000D03*
X134361000Y-82936000D03*
X131821000Y-85476000D03*
X134361000Y-85476000D03*
X131821000Y-88016000D03*
X134361000Y-88016000D03*
X131821000Y-90556000D03*
X134361000Y-90556000D03*
X131821000Y-93096000D03*
X134361000Y-93096000D03*
X131821000Y-95636000D03*
X134361000Y-95636000D03*
X131821000Y-98176000D03*
X134361000Y-98176000D03*
X131821000Y-100716000D03*
X134361000Y-100716000D03*
X131821000Y-103256000D03*
X134361000Y-103256000D03*
X131821000Y-105796000D03*
X134361000Y-105796000D03*
X131821000Y-108336000D03*
X134361000Y-108336000D03*
X131821000Y-110876000D03*
X134361000Y-110876000D03*
X131821000Y-113416000D03*
X134361000Y-113416000D03*
X131821000Y-115956000D03*
X134361000Y-115956000D03*
X131821000Y-118496000D03*
X134361000Y-118496000D03*
X131821000Y-121036000D03*
X134361000Y-121036000D03*
%TD*%
D10*
%TO.C,SW1*%
X101229000Y-50536000D03*
D11*
X101229000Y-53076000D03*
X101229000Y-55616000D03*
X101229000Y-58156000D03*
X101229000Y-60696000D03*
X101229000Y-63236000D03*
X101229000Y-65776000D03*
X101229000Y-68316000D03*
X108849000Y-68316000D03*
X108849000Y-65776000D03*
X108849000Y-63236000D03*
X108849000Y-60696000D03*
X108849000Y-58156000D03*
X108849000Y-55616000D03*
X108849000Y-53076000D03*
X108849000Y-50536000D03*
%TD*%
D14*
%TO.C,J1*%
X72898000Y-131953000D03*
X72898000Y-43053000D03*
D15*
X75438000Y-126873000D03*
D16*
X75438000Y-124333000D03*
X75438000Y-121793000D03*
X75438000Y-119253000D03*
X75438000Y-116713000D03*
X75438000Y-114173000D03*
X75438000Y-111633000D03*
X75438000Y-109093000D03*
X75438000Y-106553000D03*
X75438000Y-104013000D03*
X75438000Y-101473000D03*
X75438000Y-98933000D03*
X75438000Y-96393000D03*
X75438000Y-93853000D03*
X75438000Y-91313000D03*
X75438000Y-88773000D03*
X75438000Y-86233000D03*
X75438000Y-83693000D03*
X75438000Y-81153000D03*
X75438000Y-78613000D03*
X75438000Y-76073000D03*
X75438000Y-73533000D03*
X75438000Y-70993000D03*
X75438000Y-68453000D03*
X75438000Y-65913000D03*
X75438000Y-63373000D03*
X75438000Y-60833000D03*
X75438000Y-58293000D03*
X75438000Y-55753000D03*
X75438000Y-53213000D03*
X75438000Y-50673000D03*
X75438000Y-48133000D03*
X80518000Y-126873000D03*
X80518000Y-124333000D03*
X80518000Y-121793000D03*
X80518000Y-119253000D03*
X80518000Y-116713000D03*
X80518000Y-114173000D03*
X80518000Y-111633000D03*
X80518000Y-109093000D03*
X80518000Y-106553000D03*
X80518000Y-104013000D03*
X80518000Y-101473000D03*
X80518000Y-98933000D03*
X80518000Y-96393000D03*
X80518000Y-93853000D03*
X80518000Y-91313000D03*
X80518000Y-88773000D03*
X80518000Y-86233000D03*
X80518000Y-83693000D03*
X80518000Y-81153000D03*
X80518000Y-78613000D03*
X80518000Y-76073000D03*
X80518000Y-73533000D03*
X80518000Y-70993000D03*
X80518000Y-68453000D03*
X80518000Y-65913000D03*
X80518000Y-63373000D03*
X80518000Y-60833000D03*
X80518000Y-58293000D03*
X80518000Y-55753000D03*
X80518000Y-53213000D03*
X80518000Y-50673000D03*
X80518000Y-48133000D03*
%TD*%
D12*
%TO.C,INT1*%
X83434000Y-88778000D03*
D13*
X83434000Y-86238000D03*
X85974000Y-88778000D03*
X85974000Y-86238000D03*
%TD*%
D10*
%TO.C,CP2*%
X143626651Y-64262000D03*
D17*
X138626651Y-64262000D03*
%TD*%
D10*
%TO.C,U4*%
X124206000Y-50546000D03*
D11*
X124206000Y-53086000D03*
X124206000Y-55626000D03*
X124206000Y-58166000D03*
X124206000Y-60706000D03*
X124206000Y-63246000D03*
X124206000Y-65786000D03*
X131826000Y-65786000D03*
X131826000Y-63246000D03*
X131826000Y-60706000D03*
X131826000Y-58166000D03*
X131826000Y-55626000D03*
X131826000Y-53086000D03*
X131826000Y-50546000D03*
%TD*%
D10*
%TO.C,RN1*%
X97282000Y-47991000D03*
D11*
X97282000Y-50531000D03*
X97282000Y-53071000D03*
X97282000Y-55611000D03*
X97282000Y-58151000D03*
X97282000Y-60691000D03*
X97282000Y-63231000D03*
X97282000Y-65771000D03*
X97282000Y-68311000D03*
%TD*%
D12*
%TO.C,Prgm1*%
X117343000Y-135636000D03*
D13*
X119883000Y-135636000D03*
%TD*%
D10*
%TO.C,U3*%
X93594000Y-76083000D03*
D11*
X93594000Y-78623000D03*
X93594000Y-81163000D03*
X93594000Y-83703000D03*
X93594000Y-86243000D03*
X93594000Y-88783000D03*
X93594000Y-91323000D03*
X93594000Y-93863000D03*
X93594000Y-96403000D03*
X93594000Y-98943000D03*
X93594000Y-101483000D03*
X93594000Y-104023000D03*
X93594000Y-106563000D03*
X93594000Y-109103000D03*
X93594000Y-111643000D03*
X93594000Y-114183000D03*
X93594000Y-116723000D03*
X93594000Y-119263000D03*
X93594000Y-121803000D03*
X93594000Y-124343000D03*
X93594000Y-126883000D03*
X93594000Y-129423000D03*
X93594000Y-131963000D03*
X93594000Y-134503000D03*
X108834000Y-134503000D03*
X108834000Y-131963000D03*
X108834000Y-129423000D03*
X108834000Y-126883000D03*
X108834000Y-124343000D03*
X108834000Y-121803000D03*
X108834000Y-119263000D03*
X108834000Y-116723000D03*
X108834000Y-114183000D03*
X108834000Y-111643000D03*
X108834000Y-109103000D03*
X108834000Y-106563000D03*
X108834000Y-104023000D03*
X108834000Y-101483000D03*
X108834000Y-98943000D03*
X108834000Y-96403000D03*
X108834000Y-93863000D03*
X108834000Y-91323000D03*
X108834000Y-88783000D03*
X108834000Y-86243000D03*
X108834000Y-83703000D03*
X108834000Y-81163000D03*
X108834000Y-78623000D03*
X108834000Y-76083000D03*
%TD*%
D12*
%TO.C,HAT1*%
X144150000Y-125217000D03*
D13*
X144150000Y-127757000D03*
X141610000Y-125217000D03*
X141610000Y-127757000D03*
%TD*%
D12*
%TO.C,ARM1*%
X144150000Y-131694000D03*
D13*
X144150000Y-134234000D03*
X141610000Y-131694000D03*
X141610000Y-134234000D03*
%TD*%
D10*
%TO.C,U1*%
X85598000Y-45466000D03*
D11*
X85598000Y-48006000D03*
X85598000Y-50546000D03*
X85598000Y-53086000D03*
X85598000Y-55626000D03*
X85598000Y-58166000D03*
X85598000Y-60706000D03*
X85598000Y-63246000D03*
X85598000Y-65786000D03*
X85598000Y-68326000D03*
X93218000Y-68326000D03*
X93218000Y-65786000D03*
X93218000Y-63246000D03*
X93218000Y-60706000D03*
X93218000Y-58166000D03*
X93218000Y-55626000D03*
X93218000Y-53086000D03*
X93218000Y-50546000D03*
X93218000Y-48006000D03*
X93218000Y-45466000D03*
%TD*%
D10*
%TO.C,CP1*%
X138567349Y-44069000D03*
D17*
X143567349Y-44069000D03*
%TD*%
M02*
