%TF.GenerationSoftware,KiCad,Pcbnew,(6.0.8-1)-1*%
%TF.CreationDate,2023-09-26T17:12:20+03:00*%
%TF.ProjectId,A410_Podule_Ram_RPI,41343130-5f50-46f6-9475-6c655f52616d,rev?*%
%TF.SameCoordinates,Original*%
%TF.FileFunction,Legend,Top*%
%TF.FilePolarity,Positive*%
%FSLAX46Y46*%
G04 Gerber Fmt 4.6, Leading zero omitted, Abs format (unit mm)*
G04 Created by KiCad (PCBNEW (6.0.8-1)-1) date 2023-09-26 17:12:20*
%MOMM*%
%LPD*%
G01*
G04 APERTURE LIST*
%ADD10C,0.150000*%
%ADD11C,0.120000*%
G04 APERTURE END LIST*
D10*
X145443476Y-95121904D02*
X145395857Y-95217142D01*
X145395857Y-95407619D01*
X145443476Y-95502857D01*
X145538714Y-95598095D01*
X145633952Y-95645714D01*
X145824428Y-95645714D01*
X145919666Y-95598095D01*
X146014904Y-95502857D01*
X146062523Y-95407619D01*
X146062523Y-95217142D01*
X146014904Y-95121904D01*
X145062523Y-95312380D02*
X145110142Y-95550476D01*
X145253000Y-95788571D01*
X145491095Y-95931428D01*
X145729190Y-95979047D01*
X145967285Y-95931428D01*
X146205380Y-95788571D01*
X146348238Y-95550476D01*
X146395857Y-95312380D01*
X146348238Y-95074285D01*
X146205380Y-94836190D01*
X145967285Y-94693333D01*
X145729190Y-94645714D01*
X145491095Y-94693333D01*
X145253000Y-94836190D01*
X145110142Y-95074285D01*
X145062523Y-95312380D01*
X145300619Y-93502857D02*
X145253000Y-93455238D01*
X145205380Y-93360000D01*
X145205380Y-93121904D01*
X145253000Y-93026666D01*
X145300619Y-92979047D01*
X145395857Y-92931428D01*
X145491095Y-92931428D01*
X145633952Y-92979047D01*
X146205380Y-93550476D01*
X146205380Y-92931428D01*
X145205380Y-92312380D02*
X145205380Y-92217142D01*
X145253000Y-92121904D01*
X145300619Y-92074285D01*
X145395857Y-92026666D01*
X145586333Y-91979047D01*
X145824428Y-91979047D01*
X146014904Y-92026666D01*
X146110142Y-92074285D01*
X146157761Y-92121904D01*
X146205380Y-92217142D01*
X146205380Y-92312380D01*
X146157761Y-92407619D01*
X146110142Y-92455238D01*
X146014904Y-92502857D01*
X145824428Y-92550476D01*
X145586333Y-92550476D01*
X145395857Y-92502857D01*
X145300619Y-92455238D01*
X145253000Y-92407619D01*
X145205380Y-92312380D01*
X145300619Y-91598095D02*
X145253000Y-91550476D01*
X145205380Y-91455238D01*
X145205380Y-91217142D01*
X145253000Y-91121904D01*
X145300619Y-91074285D01*
X145395857Y-91026666D01*
X145491095Y-91026666D01*
X145633952Y-91074285D01*
X146205380Y-91645714D01*
X146205380Y-91026666D01*
X145205380Y-90693333D02*
X145205380Y-90074285D01*
X145586333Y-90407619D01*
X145586333Y-90264761D01*
X145633952Y-90169523D01*
X145681571Y-90121904D01*
X145776809Y-90074285D01*
X146014904Y-90074285D01*
X146110142Y-90121904D01*
X146157761Y-90169523D01*
X146205380Y-90264761D01*
X146205380Y-90550476D01*
X146157761Y-90645714D01*
X146110142Y-90693333D01*
X145824428Y-88883809D02*
X145824428Y-88121904D01*
X145681571Y-86883809D02*
X145681571Y-86550476D01*
X146205380Y-86407619D02*
X146205380Y-86883809D01*
X145205380Y-86883809D01*
X145205380Y-86407619D01*
X146205380Y-85836190D02*
X146157761Y-85931428D01*
X146062523Y-85979047D01*
X145205380Y-85979047D01*
X146205380Y-85455238D02*
X145538714Y-85455238D01*
X145205380Y-85455238D02*
X145253000Y-85502857D01*
X145300619Y-85455238D01*
X145253000Y-85407619D01*
X145205380Y-85455238D01*
X145300619Y-85455238D01*
X145538714Y-85121904D02*
X145538714Y-84740952D01*
X145205380Y-84979047D02*
X146062523Y-84979047D01*
X146157761Y-84931428D01*
X146205380Y-84836190D01*
X146205380Y-84740952D01*
X146157761Y-84026666D02*
X146205380Y-84121904D01*
X146205380Y-84312380D01*
X146157761Y-84407619D01*
X146062523Y-84455238D01*
X145681571Y-84455238D01*
X145586333Y-84407619D01*
X145538714Y-84312380D01*
X145538714Y-84121904D01*
X145586333Y-84026666D01*
X145681571Y-83979047D01*
X145776809Y-83979047D01*
X145872047Y-84455238D01*
X146157761Y-83121904D02*
X146205380Y-83217142D01*
X146205380Y-83407619D01*
X146157761Y-83502857D01*
X146110142Y-83550476D01*
X146014904Y-83598095D01*
X145729190Y-83598095D01*
X145633952Y-83550476D01*
X145586333Y-83502857D01*
X145538714Y-83407619D01*
X145538714Y-83217142D01*
X145586333Y-83121904D01*
X146205380Y-82693333D02*
X145205380Y-82693333D01*
X146205380Y-82264761D02*
X145681571Y-82264761D01*
X145586333Y-82312380D01*
X145538714Y-82407619D01*
X145538714Y-82550476D01*
X145586333Y-82645714D01*
X145633952Y-82693333D01*
X145824428Y-81026666D02*
X145824428Y-80264761D01*
X145919666Y-79074285D02*
X145919666Y-78598095D01*
X146205380Y-79169523D02*
X145205380Y-78836190D01*
X146205380Y-78502857D01*
X146205380Y-77693333D02*
X146205380Y-78169523D01*
X145205380Y-78169523D01*
X145205380Y-77169523D02*
X145205380Y-76979047D01*
X145253000Y-76883809D01*
X145348238Y-76788571D01*
X145538714Y-76740952D01*
X145872047Y-76740952D01*
X146062523Y-76788571D01*
X146157761Y-76883809D01*
X146205380Y-76979047D01*
X146205380Y-77169523D01*
X146157761Y-77264761D01*
X146062523Y-77360000D01*
X145872047Y-77407619D01*
X145538714Y-77407619D01*
X145348238Y-77360000D01*
X145253000Y-77264761D01*
X145205380Y-77169523D01*
X147529666Y-95788571D02*
X147529666Y-95312380D01*
X147815380Y-95883809D02*
X146815380Y-95550476D01*
X147815380Y-95217142D01*
X147815380Y-94883809D02*
X147148714Y-94883809D01*
X147339190Y-94883809D02*
X147243952Y-94836190D01*
X147196333Y-94788571D01*
X147148714Y-94693333D01*
X147148714Y-94598095D01*
X147767761Y-93836190D02*
X147815380Y-93931428D01*
X147815380Y-94121904D01*
X147767761Y-94217142D01*
X147720142Y-94264761D01*
X147624904Y-94312380D01*
X147339190Y-94312380D01*
X147243952Y-94264761D01*
X147196333Y-94217142D01*
X147148714Y-94121904D01*
X147148714Y-93931428D01*
X147196333Y-93836190D01*
X147815380Y-93407619D02*
X146815380Y-93407619D01*
X147815380Y-92979047D02*
X147291571Y-92979047D01*
X147196333Y-93026666D01*
X147148714Y-93121904D01*
X147148714Y-93264761D01*
X147196333Y-93360000D01*
X147243952Y-93407619D01*
X147815380Y-92502857D02*
X147148714Y-92502857D01*
X146815380Y-92502857D02*
X146863000Y-92550476D01*
X146910619Y-92502857D01*
X146863000Y-92455238D01*
X146815380Y-92502857D01*
X146910619Y-92502857D01*
X147815380Y-92026666D02*
X147148714Y-92026666D01*
X147243952Y-92026666D02*
X147196333Y-91979047D01*
X147148714Y-91883809D01*
X147148714Y-91740952D01*
X147196333Y-91645714D01*
X147291571Y-91598095D01*
X147815380Y-91598095D01*
X147291571Y-91598095D02*
X147196333Y-91550476D01*
X147148714Y-91455238D01*
X147148714Y-91312380D01*
X147196333Y-91217142D01*
X147291571Y-91169523D01*
X147815380Y-91169523D01*
X147767761Y-90312380D02*
X147815380Y-90407619D01*
X147815380Y-90598095D01*
X147767761Y-90693333D01*
X147672523Y-90740952D01*
X147291571Y-90740952D01*
X147196333Y-90693333D01*
X147148714Y-90598095D01*
X147148714Y-90407619D01*
X147196333Y-90312380D01*
X147291571Y-90264761D01*
X147386809Y-90264761D01*
X147482047Y-90740952D01*
X147815380Y-89407619D02*
X146815380Y-89407619D01*
X147767761Y-89407619D02*
X147815380Y-89502857D01*
X147815380Y-89693333D01*
X147767761Y-89788571D01*
X147720142Y-89836190D01*
X147624904Y-89883809D01*
X147339190Y-89883809D01*
X147243952Y-89836190D01*
X147196333Y-89788571D01*
X147148714Y-89693333D01*
X147148714Y-89502857D01*
X147196333Y-89407619D01*
X147767761Y-88550476D02*
X147815380Y-88645714D01*
X147815380Y-88836190D01*
X147767761Y-88931428D01*
X147672523Y-88979047D01*
X147291571Y-88979047D01*
X147196333Y-88931428D01*
X147148714Y-88836190D01*
X147148714Y-88645714D01*
X147196333Y-88550476D01*
X147291571Y-88502857D01*
X147386809Y-88502857D01*
X147482047Y-88979047D01*
X147767761Y-88121904D02*
X147815380Y-88026666D01*
X147815380Y-87836190D01*
X147767761Y-87740952D01*
X147672523Y-87693333D01*
X147624904Y-87693333D01*
X147529666Y-87740952D01*
X147482047Y-87836190D01*
X147482047Y-87979047D01*
X147434428Y-88074285D01*
X147339190Y-88121904D01*
X147291571Y-88121904D01*
X147196333Y-88074285D01*
X147148714Y-87979047D01*
X147148714Y-87836190D01*
X147196333Y-87740952D01*
X147434428Y-86502857D02*
X147434428Y-85740952D01*
X147815380Y-83931428D02*
X147339190Y-84264761D01*
X147815380Y-84502857D02*
X146815380Y-84502857D01*
X146815380Y-84121904D01*
X146863000Y-84026666D01*
X146910619Y-83979047D01*
X147005857Y-83931428D01*
X147148714Y-83931428D01*
X147243952Y-83979047D01*
X147291571Y-84026666D01*
X147339190Y-84121904D01*
X147339190Y-84502857D01*
X147815380Y-83502857D02*
X146815380Y-83502857D01*
X146815380Y-83121904D01*
X146863000Y-83026666D01*
X146910619Y-82979047D01*
X147005857Y-82931428D01*
X147148714Y-82931428D01*
X147243952Y-82979047D01*
X147291571Y-83026666D01*
X147339190Y-83121904D01*
X147339190Y-83502857D01*
X147815380Y-82502857D02*
X146815380Y-82502857D01*
X147291571Y-80931428D02*
X147339190Y-80788571D01*
X147386809Y-80740952D01*
X147482047Y-80693333D01*
X147624904Y-80693333D01*
X147720142Y-80740952D01*
X147767761Y-80788571D01*
X147815380Y-80883809D01*
X147815380Y-81264761D01*
X146815380Y-81264761D01*
X146815380Y-80931428D01*
X146863000Y-80836190D01*
X146910619Y-80788571D01*
X147005857Y-80740952D01*
X147101095Y-80740952D01*
X147196333Y-80788571D01*
X147243952Y-80836190D01*
X147291571Y-80931428D01*
X147291571Y-81264761D01*
X147815380Y-80264761D02*
X147148714Y-80264761D01*
X147339190Y-80264761D02*
X147243952Y-80217142D01*
X147196333Y-80169523D01*
X147148714Y-80074285D01*
X147148714Y-79979047D01*
X147815380Y-79645714D02*
X147148714Y-79645714D01*
X146815380Y-79645714D02*
X146863000Y-79693333D01*
X146910619Y-79645714D01*
X146863000Y-79598095D01*
X146815380Y-79645714D01*
X146910619Y-79645714D01*
X147815380Y-78740952D02*
X146815380Y-78740952D01*
X147767761Y-78740952D02*
X147815380Y-78836190D01*
X147815380Y-79026666D01*
X147767761Y-79121904D01*
X147720142Y-79169523D01*
X147624904Y-79217142D01*
X147339190Y-79217142D01*
X147243952Y-79169523D01*
X147196333Y-79121904D01*
X147148714Y-79026666D01*
X147148714Y-78836190D01*
X147196333Y-78740952D01*
X147148714Y-77836190D02*
X147958238Y-77836190D01*
X148053476Y-77883809D01*
X148101095Y-77931428D01*
X148148714Y-78026666D01*
X148148714Y-78169523D01*
X148101095Y-78264761D01*
X147767761Y-77836190D02*
X147815380Y-77931428D01*
X147815380Y-78121904D01*
X147767761Y-78217142D01*
X147720142Y-78264761D01*
X147624904Y-78312380D01*
X147339190Y-78312380D01*
X147243952Y-78264761D01*
X147196333Y-78217142D01*
X147148714Y-78121904D01*
X147148714Y-77931428D01*
X147196333Y-77836190D01*
X147767761Y-76979047D02*
X147815380Y-77074285D01*
X147815380Y-77264761D01*
X147767761Y-77360000D01*
X147672523Y-77407619D01*
X147291571Y-77407619D01*
X147196333Y-77360000D01*
X147148714Y-77264761D01*
X147148714Y-77074285D01*
X147196333Y-76979047D01*
X147291571Y-76931428D01*
X147386809Y-76931428D01*
X147482047Y-77407619D01*
%TO.C,U2*%
X115824095Y-52284380D02*
X115824095Y-53093904D01*
X115871714Y-53189142D01*
X115919333Y-53236761D01*
X116014571Y-53284380D01*
X116205047Y-53284380D01*
X116300285Y-53236761D01*
X116347904Y-53189142D01*
X116395523Y-53093904D01*
X116395523Y-52284380D01*
X116824095Y-52379619D02*
X116871714Y-52332000D01*
X116966952Y-52284380D01*
X117205047Y-52284380D01*
X117300285Y-52332000D01*
X117347904Y-52379619D01*
X117395523Y-52474857D01*
X117395523Y-52570095D01*
X117347904Y-52712952D01*
X116776476Y-53284380D01*
X117395523Y-53284380D01*
%TO.C,J2*%
X132757666Y-69898380D02*
X132757666Y-70612666D01*
X132710047Y-70755523D01*
X132614809Y-70850761D01*
X132471952Y-70898380D01*
X132376714Y-70898380D01*
X133186238Y-69993619D02*
X133233857Y-69946000D01*
X133329095Y-69898380D01*
X133567190Y-69898380D01*
X133662428Y-69946000D01*
X133710047Y-69993619D01*
X133757666Y-70088857D01*
X133757666Y-70184095D01*
X133710047Y-70326952D01*
X133138619Y-70898380D01*
X133757666Y-70898380D01*
%TO.C,U6*%
X117729095Y-107148380D02*
X117729095Y-107957904D01*
X117776714Y-108053142D01*
X117824333Y-108100761D01*
X117919571Y-108148380D01*
X118110047Y-108148380D01*
X118205285Y-108100761D01*
X118252904Y-108053142D01*
X118300523Y-107957904D01*
X118300523Y-107148380D01*
X119205285Y-107148380D02*
X119014809Y-107148380D01*
X118919571Y-107196000D01*
X118871952Y-107243619D01*
X118776714Y-107386476D01*
X118729095Y-107576952D01*
X118729095Y-107957904D01*
X118776714Y-108053142D01*
X118824333Y-108100761D01*
X118919571Y-108148380D01*
X119110047Y-108148380D01*
X119205285Y-108100761D01*
X119252904Y-108053142D01*
X119300523Y-107957904D01*
X119300523Y-107719809D01*
X119252904Y-107624571D01*
X119205285Y-107576952D01*
X119110047Y-107529333D01*
X118919571Y-107529333D01*
X118824333Y-107576952D01*
X118776714Y-107624571D01*
X118729095Y-107719809D01*
%TO.C,SW1*%
X103705666Y-48610761D02*
X103848523Y-48658380D01*
X104086619Y-48658380D01*
X104181857Y-48610761D01*
X104229476Y-48563142D01*
X104277095Y-48467904D01*
X104277095Y-48372666D01*
X104229476Y-48277428D01*
X104181857Y-48229809D01*
X104086619Y-48182190D01*
X103896142Y-48134571D01*
X103800904Y-48086952D01*
X103753285Y-48039333D01*
X103705666Y-47944095D01*
X103705666Y-47848857D01*
X103753285Y-47753619D01*
X103800904Y-47706000D01*
X103896142Y-47658380D01*
X104134238Y-47658380D01*
X104277095Y-47706000D01*
X104610428Y-47658380D02*
X104848523Y-48658380D01*
X105039000Y-47944095D01*
X105229476Y-48658380D01*
X105467571Y-47658380D01*
X106372333Y-48658380D02*
X105800904Y-48658380D01*
X106086619Y-48658380D02*
X106086619Y-47658380D01*
X105991380Y-47801238D01*
X105896142Y-47896476D01*
X105800904Y-47944095D01*
%TO.C,U8*%
X132294380Y-132968904D02*
X133103904Y-132968904D01*
X133199142Y-132921285D01*
X133246761Y-132873666D01*
X133294380Y-132778428D01*
X133294380Y-132587952D01*
X133246761Y-132492714D01*
X133199142Y-132445095D01*
X133103904Y-132397476D01*
X132294380Y-132397476D01*
X132722952Y-131778428D02*
X132675333Y-131873666D01*
X132627714Y-131921285D01*
X132532476Y-131968904D01*
X132484857Y-131968904D01*
X132389619Y-131921285D01*
X132342000Y-131873666D01*
X132294380Y-131778428D01*
X132294380Y-131587952D01*
X132342000Y-131492714D01*
X132389619Y-131445095D01*
X132484857Y-131397476D01*
X132532476Y-131397476D01*
X132627714Y-131445095D01*
X132675333Y-131492714D01*
X132722952Y-131587952D01*
X132722952Y-131778428D01*
X132770571Y-131873666D01*
X132818190Y-131921285D01*
X132913428Y-131968904D01*
X133103904Y-131968904D01*
X133199142Y-131921285D01*
X133246761Y-131873666D01*
X133294380Y-131778428D01*
X133294380Y-131587952D01*
X133246761Y-131492714D01*
X133199142Y-131445095D01*
X133103904Y-131397476D01*
X132913428Y-131397476D01*
X132818190Y-131445095D01*
X132770571Y-131492714D01*
X132722952Y-131587952D01*
%TO.C,U5*%
X117602095Y-126833380D02*
X117602095Y-127642904D01*
X117649714Y-127738142D01*
X117697333Y-127785761D01*
X117792571Y-127833380D01*
X117983047Y-127833380D01*
X118078285Y-127785761D01*
X118125904Y-127738142D01*
X118173523Y-127642904D01*
X118173523Y-126833380D01*
X119125904Y-126833380D02*
X118649714Y-126833380D01*
X118602095Y-127309571D01*
X118649714Y-127261952D01*
X118744952Y-127214333D01*
X118983047Y-127214333D01*
X119078285Y-127261952D01*
X119125904Y-127309571D01*
X119173523Y-127404809D01*
X119173523Y-127642904D01*
X119125904Y-127738142D01*
X119078285Y-127785761D01*
X118983047Y-127833380D01*
X118744952Y-127833380D01*
X118649714Y-127785761D01*
X118602095Y-127738142D01*
%TO.C,U9*%
X135922380Y-54609904D02*
X136731904Y-54609904D01*
X136827142Y-54562285D01*
X136874761Y-54514666D01*
X136922380Y-54419428D01*
X136922380Y-54228952D01*
X136874761Y-54133714D01*
X136827142Y-54086095D01*
X136731904Y-54038476D01*
X135922380Y-54038476D01*
X136922380Y-53514666D02*
X136922380Y-53324190D01*
X136874761Y-53228952D01*
X136827142Y-53181333D01*
X136684285Y-53086095D01*
X136493809Y-53038476D01*
X136112857Y-53038476D01*
X136017619Y-53086095D01*
X135970000Y-53133714D01*
X135922380Y-53228952D01*
X135922380Y-53419428D01*
X135970000Y-53514666D01*
X136017619Y-53562285D01*
X136112857Y-53609904D01*
X136350952Y-53609904D01*
X136446190Y-53562285D01*
X136493809Y-53514666D01*
X136541428Y-53419428D01*
X136541428Y-53228952D01*
X136493809Y-53133714D01*
X136446190Y-53086095D01*
X136350952Y-53038476D01*
%TO.C,U7*%
X117602095Y-89114380D02*
X117602095Y-89923904D01*
X117649714Y-90019142D01*
X117697333Y-90066761D01*
X117792571Y-90114380D01*
X117983047Y-90114380D01*
X118078285Y-90066761D01*
X118125904Y-90019142D01*
X118173523Y-89923904D01*
X118173523Y-89114380D01*
X118554476Y-89114380D02*
X119221142Y-89114380D01*
X118792571Y-90114380D01*
%TO.C,J1*%
X75890380Y-132286333D02*
X76604666Y-132286333D01*
X76747523Y-132333952D01*
X76842761Y-132429190D01*
X76890380Y-132572047D01*
X76890380Y-132667285D01*
X76890380Y-131286333D02*
X76890380Y-131857761D01*
X76890380Y-131572047D02*
X75890380Y-131572047D01*
X76033238Y-131667285D01*
X76128476Y-131762523D01*
X76176095Y-131857761D01*
%TO.C,CP2*%
X140459984Y-69869142D02*
X140412365Y-69916761D01*
X140269508Y-69964380D01*
X140174270Y-69964380D01*
X140031412Y-69916761D01*
X139936174Y-69821523D01*
X139888555Y-69726285D01*
X139840936Y-69535809D01*
X139840936Y-69392952D01*
X139888555Y-69202476D01*
X139936174Y-69107238D01*
X140031412Y-69012000D01*
X140174270Y-68964380D01*
X140269508Y-68964380D01*
X140412365Y-69012000D01*
X140459984Y-69059619D01*
X140888555Y-69964380D02*
X140888555Y-68964380D01*
X141269508Y-68964380D01*
X141364746Y-69012000D01*
X141412365Y-69059619D01*
X141459984Y-69154857D01*
X141459984Y-69297714D01*
X141412365Y-69392952D01*
X141364746Y-69440571D01*
X141269508Y-69488190D01*
X140888555Y-69488190D01*
X141840936Y-69059619D02*
X141888555Y-69012000D01*
X141983793Y-68964380D01*
X142221889Y-68964380D01*
X142317127Y-69012000D01*
X142364746Y-69059619D01*
X142412365Y-69154857D01*
X142412365Y-69250095D01*
X142364746Y-69392952D01*
X141793317Y-69964380D01*
X142412365Y-69964380D01*
%TO.C,U4*%
X127381095Y-51776380D02*
X127381095Y-52585904D01*
X127428714Y-52681142D01*
X127476333Y-52728761D01*
X127571571Y-52776380D01*
X127762047Y-52776380D01*
X127857285Y-52728761D01*
X127904904Y-52681142D01*
X127952523Y-52585904D01*
X127952523Y-51776380D01*
X128857285Y-52109714D02*
X128857285Y-52776380D01*
X128619190Y-51728761D02*
X128381095Y-52443047D01*
X129000142Y-52443047D01*
%TO.C,RN1*%
X96591523Y-45918380D02*
X96258190Y-45442190D01*
X96020095Y-45918380D02*
X96020095Y-44918380D01*
X96401047Y-44918380D01*
X96496285Y-44966000D01*
X96543904Y-45013619D01*
X96591523Y-45108857D01*
X96591523Y-45251714D01*
X96543904Y-45346952D01*
X96496285Y-45394571D01*
X96401047Y-45442190D01*
X96020095Y-45442190D01*
X97020095Y-45918380D02*
X97020095Y-44918380D01*
X97591523Y-45918380D01*
X97591523Y-44918380D01*
X98591523Y-45918380D02*
X98020095Y-45918380D01*
X98305809Y-45918380D02*
X98305809Y-44918380D01*
X98210571Y-45061238D01*
X98115333Y-45156476D01*
X98020095Y-45204095D01*
%TO.C,Prgm1*%
X111117333Y-136088380D02*
X111117333Y-135088380D01*
X111498285Y-135088380D01*
X111593523Y-135136000D01*
X111641142Y-135183619D01*
X111688761Y-135278857D01*
X111688761Y-135421714D01*
X111641142Y-135516952D01*
X111593523Y-135564571D01*
X111498285Y-135612190D01*
X111117333Y-135612190D01*
X112117333Y-136088380D02*
X112117333Y-135421714D01*
X112117333Y-135612190D02*
X112164952Y-135516952D01*
X112212571Y-135469333D01*
X112307809Y-135421714D01*
X112403047Y-135421714D01*
X113164952Y-135421714D02*
X113164952Y-136231238D01*
X113117333Y-136326476D01*
X113069714Y-136374095D01*
X112974476Y-136421714D01*
X112831619Y-136421714D01*
X112736380Y-136374095D01*
X113164952Y-136040761D02*
X113069714Y-136088380D01*
X112879238Y-136088380D01*
X112784000Y-136040761D01*
X112736380Y-135993142D01*
X112688761Y-135897904D01*
X112688761Y-135612190D01*
X112736380Y-135516952D01*
X112784000Y-135469333D01*
X112879238Y-135421714D01*
X113069714Y-135421714D01*
X113164952Y-135469333D01*
X113641142Y-136088380D02*
X113641142Y-135421714D01*
X113641142Y-135516952D02*
X113688761Y-135469333D01*
X113784000Y-135421714D01*
X113926857Y-135421714D01*
X114022095Y-135469333D01*
X114069714Y-135564571D01*
X114069714Y-136088380D01*
X114069714Y-135564571D02*
X114117333Y-135469333D01*
X114212571Y-135421714D01*
X114355428Y-135421714D01*
X114450666Y-135469333D01*
X114498285Y-135564571D01*
X114498285Y-136088380D01*
X115498285Y-136088380D02*
X114926857Y-136088380D01*
X115212571Y-136088380D02*
X115212571Y-135088380D01*
X115117333Y-135231238D01*
X115022095Y-135326476D01*
X114926857Y-135374095D01*
%TO.C,U3*%
X100711095Y-78192380D02*
X100711095Y-79001904D01*
X100758714Y-79097142D01*
X100806333Y-79144761D01*
X100901571Y-79192380D01*
X101092047Y-79192380D01*
X101187285Y-79144761D01*
X101234904Y-79097142D01*
X101282523Y-79001904D01*
X101282523Y-78192380D01*
X101663476Y-78192380D02*
X102282523Y-78192380D01*
X101949190Y-78573333D01*
X102092047Y-78573333D01*
X102187285Y-78620952D01*
X102234904Y-78668571D01*
X102282523Y-78763809D01*
X102282523Y-79001904D01*
X102234904Y-79097142D01*
X102187285Y-79144761D01*
X102092047Y-79192380D01*
X101806333Y-79192380D01*
X101711095Y-79144761D01*
X101663476Y-79097142D01*
%TO.C,HAT1*%
X146932380Y-128058428D02*
X145932380Y-128058428D01*
X146408571Y-128058428D02*
X146408571Y-127487000D01*
X146932380Y-127487000D02*
X145932380Y-127487000D01*
X146646666Y-127058428D02*
X146646666Y-126582238D01*
X146932380Y-127153666D02*
X145932380Y-126820333D01*
X146932380Y-126487000D01*
X145932380Y-126296523D02*
X145932380Y-125725095D01*
X146932380Y-126010809D02*
X145932380Y-126010809D01*
X146932380Y-124867952D02*
X146932380Y-125439380D01*
X146932380Y-125153666D02*
X145932380Y-125153666D01*
X146075238Y-125248904D01*
X146170476Y-125344142D01*
X146218095Y-125439380D01*
%TO.C,ARM1*%
X146646666Y-134749714D02*
X146646666Y-134273523D01*
X146932380Y-134844952D02*
X145932380Y-134511619D01*
X146932380Y-134178285D01*
X146932380Y-133273523D02*
X146456190Y-133606857D01*
X146932380Y-133844952D02*
X145932380Y-133844952D01*
X145932380Y-133464000D01*
X145980000Y-133368761D01*
X146027619Y-133321142D01*
X146122857Y-133273523D01*
X146265714Y-133273523D01*
X146360952Y-133321142D01*
X146408571Y-133368761D01*
X146456190Y-133464000D01*
X146456190Y-133844952D01*
X146932380Y-132844952D02*
X145932380Y-132844952D01*
X146646666Y-132511619D01*
X145932380Y-132178285D01*
X146932380Y-132178285D01*
X146932380Y-131178285D02*
X146932380Y-131749714D01*
X146932380Y-131464000D02*
X145932380Y-131464000D01*
X146075238Y-131559238D01*
X146170476Y-131654476D01*
X146218095Y-131749714D01*
%TO.C,U1*%
X88773095Y-46950380D02*
X88773095Y-47759904D01*
X88820714Y-47855142D01*
X88868333Y-47902761D01*
X88963571Y-47950380D01*
X89154047Y-47950380D01*
X89249285Y-47902761D01*
X89296904Y-47855142D01*
X89344523Y-47759904D01*
X89344523Y-46950380D01*
X90344523Y-47950380D02*
X89773095Y-47950380D01*
X90058809Y-47950380D02*
X90058809Y-46950380D01*
X89963571Y-47093238D01*
X89868333Y-47188476D01*
X89773095Y-47236095D01*
%TO.C,CP1*%
X140400682Y-39176142D02*
X140353063Y-39223761D01*
X140210206Y-39271380D01*
X140114968Y-39271380D01*
X139972110Y-39223761D01*
X139876872Y-39128523D01*
X139829253Y-39033285D01*
X139781634Y-38842809D01*
X139781634Y-38699952D01*
X139829253Y-38509476D01*
X139876872Y-38414238D01*
X139972110Y-38319000D01*
X140114968Y-38271380D01*
X140210206Y-38271380D01*
X140353063Y-38319000D01*
X140400682Y-38366619D01*
X140829253Y-39271380D02*
X140829253Y-38271380D01*
X141210206Y-38271380D01*
X141305444Y-38319000D01*
X141353063Y-38366619D01*
X141400682Y-38461857D01*
X141400682Y-38604714D01*
X141353063Y-38699952D01*
X141305444Y-38747571D01*
X141210206Y-38795190D01*
X140829253Y-38795190D01*
X142353063Y-39271380D02*
X141781634Y-39271380D01*
X142067349Y-39271380D02*
X142067349Y-38271380D01*
X141972110Y-38414238D01*
X141876872Y-38509476D01*
X141781634Y-38557095D01*
D11*
%TO.C,R3*%
X134404263Y-123359000D02*
X135851737Y-123359000D01*
X134404263Y-126069000D02*
X135851737Y-126069000D01*
%TO.C,U2*%
X111456000Y-67171000D02*
X121736000Y-67171000D01*
X113946000Y-49211000D02*
X113946000Y-67111000D01*
X113946000Y-67111000D02*
X119246000Y-67111000D01*
X119246000Y-49211000D02*
X117596000Y-49211000D01*
X121736000Y-67171000D02*
X121736000Y-49151000D01*
X121736000Y-49151000D02*
X111456000Y-49151000D01*
X115596000Y-49211000D02*
X113946000Y-49211000D01*
X119246000Y-67111000D02*
X119246000Y-49211000D01*
X111456000Y-49151000D02*
X111456000Y-67171000D01*
X115596000Y-49211000D02*
G75*
G03*
X117596000Y-49211000I1000000J0D01*
G01*
%TO.C,J2*%
X130491000Y-74046000D02*
X133091000Y-74046000D01*
X130491000Y-72776000D02*
X130491000Y-71446000D01*
X133091000Y-71446000D02*
X135691000Y-71446000D01*
X135691000Y-71446000D02*
X135691000Y-122366000D01*
X130491000Y-122366000D02*
X135691000Y-122366000D01*
X133091000Y-74046000D02*
X133091000Y-71446000D01*
X130491000Y-71446000D02*
X131821000Y-71446000D01*
X130491000Y-74046000D02*
X130491000Y-122366000D01*
%TO.C,U6*%
X118364000Y-102787000D02*
X120564000Y-102787000D01*
X118364000Y-102787000D02*
X116164000Y-102787000D01*
X118364000Y-109557000D02*
X116164000Y-109557000D01*
X118364000Y-109557000D02*
X121964000Y-109557000D01*
%TO.C,SW1*%
X99899000Y-49146000D02*
X99899000Y-69706000D01*
X107689000Y-69646000D02*
X107689000Y-49206000D01*
X99899000Y-69706000D02*
X110179000Y-69706000D01*
X110179000Y-69706000D02*
X110179000Y-49146000D01*
X102389000Y-69646000D02*
X107689000Y-69646000D01*
X102389000Y-49206000D02*
X102389000Y-69646000D01*
X110179000Y-49146000D02*
X99899000Y-49146000D01*
X104039000Y-49206000D02*
X102389000Y-49206000D01*
X107689000Y-49206000D02*
X106039000Y-49206000D01*
X104039000Y-49206000D02*
G75*
G03*
X106039000Y-49206000I1000000J0D01*
G01*
%TO.C,C2*%
X139028000Y-130987748D02*
X139028000Y-132410252D01*
X136308000Y-130987748D02*
X136308000Y-132410252D01*
D10*
%TO.C,U8*%
X129911000Y-135211000D02*
X129911000Y-136961000D01*
X129706000Y-135211000D02*
X129706000Y-129711000D01*
X129706000Y-135211000D02*
X129911000Y-135211000D01*
X129706000Y-129711000D02*
X130006000Y-129711000D01*
X135216000Y-135211000D02*
X134916000Y-135211000D01*
X135216000Y-129711000D02*
X134916000Y-129711000D01*
X135216000Y-135211000D02*
X135216000Y-129711000D01*
D11*
%TO.C,U5*%
X118364000Y-122218000D02*
X120564000Y-122218000D01*
X118364000Y-128988000D02*
X116164000Y-128988000D01*
X118364000Y-122218000D02*
X116164000Y-122218000D01*
X118364000Y-128988000D02*
X121964000Y-128988000D01*
%TO.C,U9*%
X137560000Y-51938000D02*
X138820000Y-51938000D01*
X144380000Y-55698000D02*
X144380000Y-51938000D01*
X137560000Y-57948000D02*
X137560000Y-51938000D01*
X144380000Y-51938000D02*
X143120000Y-51938000D01*
%TO.C,R2*%
X128715263Y-123359000D02*
X130162737Y-123359000D01*
X128715263Y-126069000D02*
X130162737Y-126069000D01*
%TO.C,R4*%
X124498263Y-136356000D02*
X125945737Y-136356000D01*
X124498263Y-133646000D02*
X125945737Y-133646000D01*
%TO.C,U7*%
X118364000Y-91142000D02*
X121964000Y-91142000D01*
X118364000Y-84372000D02*
X120564000Y-84372000D01*
X118364000Y-91142000D02*
X116164000Y-91142000D01*
X118364000Y-84372000D02*
X116164000Y-84372000D01*
%TO.C,C3*%
X117424252Y-45630000D02*
X116001748Y-45630000D01*
X117424252Y-48350000D02*
X116001748Y-48350000D01*
%TO.C,J1*%
X74698000Y-95523000D02*
X74698000Y-94722000D01*
X75138000Y-128568000D02*
X75738000Y-128568000D01*
X74698000Y-75203000D02*
X74698000Y-74402000D01*
X74698000Y-105683000D02*
X74698000Y-104882000D01*
X74698000Y-125778000D02*
X74698000Y-125202000D01*
X74698000Y-72663000D02*
X74698000Y-71862000D01*
X75698000Y-129243000D02*
X74698000Y-129243000D01*
X74698000Y-54883000D02*
X74698000Y-54082000D01*
X74698000Y-65043000D02*
X74698000Y-64242000D01*
X74698000Y-52343000D02*
X74698000Y-51542000D01*
X74698000Y-62503000D02*
X74698000Y-61702000D01*
X74698000Y-90443000D02*
X74698000Y-89642000D01*
X74698000Y-123463000D02*
X74698000Y-122662000D01*
X74698000Y-80283000D02*
X74698000Y-79482000D01*
X74698000Y-98063000D02*
X74698000Y-97262000D01*
X75438000Y-127968000D02*
X75138000Y-128568000D01*
X75698000Y-134763000D02*
X75698000Y-129243000D01*
X70138000Y-40243000D02*
X75698000Y-40243000D01*
X74698000Y-59963000D02*
X74698000Y-59162000D01*
X74698000Y-92983000D02*
X74698000Y-92182000D01*
X74698000Y-70123000D02*
X74698000Y-69322000D01*
X75698000Y-45763000D02*
X74698000Y-45763000D01*
X74698000Y-57423000D02*
X74698000Y-56622000D01*
X74698000Y-113303000D02*
X74698000Y-112502000D01*
X74698000Y-110763000D02*
X74698000Y-109962000D01*
X74698000Y-67583000D02*
X74698000Y-66782000D01*
X74698000Y-47263000D02*
X74698000Y-45763000D01*
X74698000Y-129244000D02*
X74698000Y-127968000D01*
X75738000Y-128568000D02*
X75438000Y-127968000D01*
X74698000Y-118383000D02*
X74698000Y-117582000D01*
X74698000Y-115843000D02*
X74698000Y-115042000D01*
X74698000Y-103143000D02*
X74698000Y-102342000D01*
X74698000Y-120923000D02*
X74698000Y-120122000D01*
X75698000Y-40243000D02*
X75698000Y-45763000D01*
X70138000Y-134763000D02*
X75698000Y-134763000D01*
X74698000Y-87903000D02*
X74698000Y-87102000D01*
X74698000Y-49803000D02*
X74698000Y-49002000D01*
X74698000Y-100603000D02*
X74698000Y-99802000D01*
X74698000Y-82823000D02*
X74698000Y-82022000D01*
X74698000Y-108223000D02*
X74698000Y-107422000D01*
X74698000Y-85363000D02*
X74698000Y-84562000D01*
X74698000Y-77743000D02*
X74698000Y-76942000D01*
%TO.C,INT1*%
X87304000Y-90108000D02*
X87304000Y-84908000D01*
X82104000Y-84908000D02*
X87304000Y-84908000D01*
X82104000Y-87508000D02*
X82104000Y-84908000D01*
X82104000Y-90108000D02*
X82104000Y-88778000D01*
X84704000Y-90108000D02*
X84704000Y-87508000D01*
X84704000Y-90108000D02*
X87304000Y-90108000D01*
X83434000Y-90108000D02*
X82104000Y-90108000D01*
X84704000Y-87508000D02*
X82104000Y-87508000D01*
%TO.C,C12*%
X90373252Y-40677000D02*
X88950748Y-40677000D01*
X90373252Y-43397000D02*
X88950748Y-43397000D01*
%TO.C,CP2*%
X138565651Y-67451000D02*
X138565651Y-65302000D01*
X139765651Y-68112000D02*
X139765651Y-60412000D01*
X139565651Y-63222000D02*
X139565651Y-60488000D01*
X138245651Y-63222000D02*
X138245651Y-61355000D01*
X145136349Y-66977000D02*
X145136349Y-66177000D01*
X138565651Y-63222000D02*
X138565651Y-61073000D01*
X140646651Y-68314000D02*
X140646651Y-60210000D01*
X140125651Y-68219000D02*
X140125651Y-60305000D01*
X138205651Y-67129000D02*
X138205651Y-65302000D01*
X139365651Y-63222000D02*
X139365651Y-60576000D01*
X138405651Y-67317000D02*
X138405651Y-65302000D01*
X138365651Y-63222000D02*
X138365651Y-61243000D01*
X139565651Y-68036000D02*
X139565651Y-65302000D01*
X138685651Y-67542000D02*
X138685651Y-65302000D01*
X139405651Y-63222000D02*
X139405651Y-60558000D01*
X139045651Y-63222000D02*
X139045651Y-60745000D01*
X138925651Y-63222000D02*
X138925651Y-60818000D01*
X141086651Y-68342000D02*
X141086651Y-60182000D01*
X140205651Y-68238000D02*
X140205651Y-60286000D01*
X139045651Y-67779000D02*
X139045651Y-65302000D01*
X137925651Y-66818000D02*
X137925651Y-65302000D01*
X139285651Y-63222000D02*
X139285651Y-60615000D01*
X140966651Y-68339000D02*
X140966651Y-60185000D01*
X138605651Y-63222000D02*
X138605651Y-61042000D01*
X139085651Y-63222000D02*
X139085651Y-60722000D01*
X140566651Y-68304000D02*
X140566651Y-60220000D01*
X140926651Y-68338000D02*
X140926651Y-60186000D01*
X139645651Y-63222000D02*
X139645651Y-60457000D01*
X139325651Y-63222000D02*
X139325651Y-60596000D01*
X137725651Y-66549000D02*
X137725651Y-65302000D01*
X138725651Y-63222000D02*
X138725651Y-60953000D01*
X140285651Y-68256000D02*
X140285651Y-60268000D01*
X138245651Y-67169000D02*
X138245651Y-65302000D01*
X140085651Y-68209000D02*
X140085651Y-60315000D01*
X137965651Y-66866000D02*
X137965651Y-65302000D01*
X137525651Y-66226000D02*
X137525651Y-62298000D01*
X140165651Y-68229000D02*
X140165651Y-60295000D01*
X140405651Y-68279000D02*
X140405651Y-60245000D01*
X137405651Y-65993000D02*
X137405651Y-62531000D01*
X137845651Y-63222000D02*
X137845651Y-61808000D01*
X139205651Y-63222000D02*
X139205651Y-60656000D01*
X140886651Y-68336000D02*
X140886651Y-60188000D01*
X139365651Y-67948000D02*
X139365651Y-65302000D01*
X138005651Y-63222000D02*
X138005651Y-61611000D01*
X137445651Y-66075000D02*
X137445651Y-62449000D01*
X138605651Y-67482000D02*
X138605651Y-65302000D01*
X138325651Y-63222000D02*
X138325651Y-61279000D01*
X139845651Y-68139000D02*
X139845651Y-60385000D01*
X139485651Y-68002000D02*
X139485651Y-65302000D01*
X137765651Y-66607000D02*
X137765651Y-65302000D01*
X137805651Y-63222000D02*
X137805651Y-61862000D01*
X137205651Y-65491000D02*
X137205651Y-63033000D01*
X140606651Y-68310000D02*
X140606651Y-60214000D01*
X138285651Y-67207000D02*
X138285651Y-65302000D01*
X140005651Y-68187000D02*
X140005651Y-60337000D01*
X138765651Y-63222000D02*
X138765651Y-60924000D01*
X138125651Y-63222000D02*
X138125651Y-61478000D01*
X140766651Y-68327000D02*
X140766651Y-60197000D01*
X138525651Y-63222000D02*
X138525651Y-61106000D01*
X140526651Y-68299000D02*
X140526651Y-60225000D01*
X137485651Y-66152000D02*
X137485651Y-62372000D01*
X140726651Y-68323000D02*
X140726651Y-60201000D01*
X138845651Y-67654000D02*
X138845651Y-65302000D01*
X137245651Y-65608000D02*
X137245651Y-62916000D01*
X137885651Y-66767000D02*
X137885651Y-65302000D01*
X137125651Y-65210000D02*
X137125651Y-63314000D01*
X138525651Y-67418000D02*
X138525651Y-65302000D01*
X137085651Y-65030000D02*
X137085651Y-63494000D01*
X139125651Y-63222000D02*
X139125651Y-60700000D01*
X139165651Y-63222000D02*
X139165651Y-60678000D01*
X139285651Y-67909000D02*
X139285651Y-65302000D01*
X140846651Y-68333000D02*
X140846651Y-60191000D01*
X137285651Y-65715000D02*
X137285651Y-62809000D01*
X139645651Y-68067000D02*
X139645651Y-65302000D01*
X140446651Y-68286000D02*
X140446651Y-60238000D01*
X141006651Y-68341000D02*
X141006651Y-60183000D01*
X138125651Y-67046000D02*
X138125651Y-65302000D01*
X139245651Y-67889000D02*
X139245651Y-65302000D01*
X137765651Y-63222000D02*
X137765651Y-61917000D01*
X138965651Y-63222000D02*
X138965651Y-60793000D01*
X139445651Y-63222000D02*
X139445651Y-60540000D01*
X138285651Y-63222000D02*
X138285651Y-61317000D01*
X138925651Y-67706000D02*
X138925651Y-65302000D01*
X138445651Y-67352000D02*
X138445651Y-65302000D01*
X138325651Y-67245000D02*
X138325651Y-65302000D01*
X140325651Y-68264000D02*
X140325651Y-60260000D01*
X139165651Y-67846000D02*
X139165651Y-65302000D01*
X139525651Y-63222000D02*
X139525651Y-60505000D01*
X139965651Y-68176000D02*
X139965651Y-60348000D01*
X138685651Y-63222000D02*
X138685651Y-60982000D01*
X138045651Y-63222000D02*
X138045651Y-61565000D01*
X137725651Y-63222000D02*
X137725651Y-61975000D01*
X140486651Y-68292000D02*
X140486651Y-60232000D01*
X139685651Y-68083000D02*
X139685651Y-60441000D01*
X145536349Y-66577000D02*
X144736349Y-66577000D01*
X138485651Y-63222000D02*
X138485651Y-61138000D01*
X139125651Y-67824000D02*
X139125651Y-65302000D01*
X137565651Y-66296000D02*
X137565651Y-62228000D01*
X137645651Y-63222000D02*
X137645651Y-62096000D01*
X140045651Y-68198000D02*
X140045651Y-60326000D01*
X138085651Y-67003000D02*
X138085651Y-65302000D01*
X140245651Y-68247000D02*
X140245651Y-60277000D01*
X140365651Y-68272000D02*
X140365651Y-60252000D01*
X139445651Y-67984000D02*
X139445651Y-65302000D01*
X138045651Y-66959000D02*
X138045651Y-65302000D01*
X138725651Y-67571000D02*
X138725651Y-65302000D01*
X138485651Y-67386000D02*
X138485651Y-65302000D01*
X138365651Y-67281000D02*
X138365651Y-65302000D01*
X138645651Y-63222000D02*
X138645651Y-61012000D01*
X137685651Y-63222000D02*
X137685651Y-62034000D01*
X141126651Y-68342000D02*
X141126651Y-60182000D01*
X139885651Y-68151000D02*
X139885651Y-60373000D01*
X141046651Y-68342000D02*
X141046651Y-60182000D01*
X138965651Y-67731000D02*
X138965651Y-65302000D01*
X137965651Y-63222000D02*
X137965651Y-61658000D01*
X138445651Y-63222000D02*
X138445651Y-61172000D01*
X137165651Y-65360000D02*
X137165651Y-63164000D01*
X139005651Y-67755000D02*
X139005651Y-65302000D01*
X137365651Y-65907000D02*
X137365651Y-62617000D01*
X137925651Y-63222000D02*
X137925651Y-61706000D01*
X137325651Y-65814000D02*
X137325651Y-62710000D01*
X139485651Y-63222000D02*
X139485651Y-60522000D01*
X139085651Y-67802000D02*
X139085651Y-65302000D01*
X138765651Y-67600000D02*
X138765651Y-65302000D01*
X139405651Y-67966000D02*
X139405651Y-65302000D01*
X138405651Y-63222000D02*
X138405651Y-61207000D01*
X137845651Y-66716000D02*
X137845651Y-65302000D01*
X138885651Y-63222000D02*
X138885651Y-60844000D01*
X139605651Y-63222000D02*
X139605651Y-60472000D01*
X140686651Y-68319000D02*
X140686651Y-60205000D01*
X137045651Y-64795000D02*
X137045651Y-63729000D01*
X138885651Y-67680000D02*
X138885651Y-65302000D01*
X138845651Y-63222000D02*
X138845651Y-60870000D01*
X139005651Y-63222000D02*
X139005651Y-60769000D01*
X138005651Y-66913000D02*
X138005651Y-65302000D01*
X138165651Y-67088000D02*
X138165651Y-65302000D01*
X138205651Y-63222000D02*
X138205651Y-61395000D01*
X139245651Y-63222000D02*
X139245651Y-60635000D01*
X137605651Y-66364000D02*
X137605651Y-65302000D01*
X138805651Y-63222000D02*
X138805651Y-60897000D01*
X139805651Y-68125000D02*
X139805651Y-60399000D01*
X137685651Y-66490000D02*
X137685651Y-65302000D01*
X139725651Y-68097000D02*
X139725651Y-60427000D01*
X138085651Y-63222000D02*
X138085651Y-61521000D01*
X137605651Y-63222000D02*
X137605651Y-62160000D01*
X138165651Y-63222000D02*
X138165651Y-61436000D01*
X137805651Y-66662000D02*
X137805651Y-65302000D01*
X139925651Y-68164000D02*
X139925651Y-60360000D01*
X139325651Y-67928000D02*
X139325651Y-65302000D01*
X138645651Y-67512000D02*
X138645651Y-65302000D01*
X140806651Y-68330000D02*
X140806651Y-60194000D01*
X138805651Y-67627000D02*
X138805651Y-65302000D01*
X139205651Y-67868000D02*
X139205651Y-65302000D01*
X137885651Y-63222000D02*
X137885651Y-61757000D01*
X137645651Y-66428000D02*
X137645651Y-65302000D01*
X139525651Y-68019000D02*
X139525651Y-65302000D01*
X139605651Y-68052000D02*
X139605651Y-65302000D01*
X145246651Y-64262000D02*
G75*
G03*
X145246651Y-64262000I-4120000J0D01*
G01*
%TO.C,U4*%
X127016000Y-49216000D02*
X125366000Y-49216000D01*
X130666000Y-67116000D02*
X130666000Y-49216000D01*
X125366000Y-67116000D02*
X130666000Y-67116000D01*
X133156000Y-49156000D02*
X122876000Y-49156000D01*
X130666000Y-49216000D02*
X129016000Y-49216000D01*
X122876000Y-49156000D02*
X122876000Y-67176000D01*
X125366000Y-49216000D02*
X125366000Y-67116000D01*
X122876000Y-67176000D02*
X133156000Y-67176000D01*
X133156000Y-67176000D02*
X133156000Y-49156000D01*
X127016000Y-49216000D02*
G75*
G03*
X129016000Y-49216000I1000000J0D01*
G01*
%TO.C,RN1*%
X98682000Y-46551000D02*
X95882000Y-46551000D01*
X95882000Y-69751000D02*
X98682000Y-69751000D01*
X98682000Y-69751000D02*
X98682000Y-46551000D01*
X98682000Y-49261000D02*
X95882000Y-49261000D01*
X95882000Y-46551000D02*
X95882000Y-69751000D01*
%TO.C,C7*%
X117906748Y-110527000D02*
X119329252Y-110527000D01*
X117906748Y-113247000D02*
X119329252Y-113247000D01*
%TO.C,C9*%
X126187252Y-91858000D02*
X124764748Y-91858000D01*
X126187252Y-94578000D02*
X124764748Y-94578000D01*
%TO.C,C10*%
X126187252Y-110527000D02*
X124764748Y-110527000D01*
X126187252Y-113247000D02*
X124764748Y-113247000D01*
%TO.C,Prgm1*%
X118613000Y-136966000D02*
X118613000Y-134306000D01*
X121213000Y-136966000D02*
X121213000Y-134306000D01*
X117343000Y-136966000D02*
X116013000Y-136966000D01*
X116013000Y-136966000D02*
X116013000Y-135636000D01*
X118613000Y-136966000D02*
X121213000Y-136966000D01*
X118613000Y-134306000D02*
X121213000Y-134306000D01*
%TO.C,U3*%
X92264000Y-135893000D02*
X110164000Y-135893000D01*
X94754000Y-74753000D02*
X94754000Y-135833000D01*
X92264000Y-74693000D02*
X92264000Y-135893000D01*
X107674000Y-135833000D02*
X107674000Y-74753000D01*
X94754000Y-135833000D02*
X107674000Y-135833000D01*
X107674000Y-74753000D02*
X102214000Y-74753000D01*
X100214000Y-74753000D02*
X94754000Y-74753000D01*
X110164000Y-135893000D02*
X110164000Y-74693000D01*
X110164000Y-74693000D02*
X92264000Y-74693000D01*
X100214000Y-74753000D02*
G75*
G03*
X102214000Y-74753000I1000000J0D01*
G01*
%TO.C,HAT1*%
X145480000Y-129087000D02*
X140280000Y-129087000D01*
X142880000Y-123887000D02*
X140280000Y-123887000D01*
X144150000Y-123887000D02*
X145480000Y-123887000D01*
X145480000Y-123887000D02*
X145480000Y-125217000D01*
X140280000Y-123887000D02*
X140280000Y-129087000D01*
X142880000Y-126487000D02*
X145480000Y-126487000D01*
X145480000Y-126487000D02*
X145480000Y-129087000D01*
X142880000Y-123887000D02*
X142880000Y-126487000D01*
%TO.C,ARM1*%
X142880000Y-132964000D02*
X145480000Y-132964000D01*
X145480000Y-135564000D02*
X140280000Y-135564000D01*
X145480000Y-130364000D02*
X145480000Y-131694000D01*
X140280000Y-130364000D02*
X140280000Y-135564000D01*
X142880000Y-130364000D02*
X140280000Y-130364000D01*
X145480000Y-132964000D02*
X145480000Y-135564000D01*
X144150000Y-130364000D02*
X145480000Y-130364000D01*
X142880000Y-130364000D02*
X142880000Y-132964000D01*
%TO.C,C5*%
X128473252Y-48477000D02*
X127050748Y-48477000D01*
X128473252Y-45757000D02*
X127050748Y-45757000D01*
%TO.C,C6*%
X117906748Y-132805000D02*
X119329252Y-132805000D01*
X117906748Y-130085000D02*
X119329252Y-130085000D01*
%TO.C,C11*%
X125933252Y-132805000D02*
X124510748Y-132805000D01*
X125933252Y-130085000D02*
X124510748Y-130085000D01*
%TO.C,C8*%
X117906748Y-94578000D02*
X119329252Y-94578000D01*
X117906748Y-91858000D02*
X119329252Y-91858000D01*
%TO.C,U1*%
X94548000Y-44076000D02*
X84268000Y-44076000D01*
X88408000Y-44136000D02*
X86758000Y-44136000D01*
X92058000Y-44136000D02*
X90408000Y-44136000D01*
X86758000Y-44136000D02*
X86758000Y-69656000D01*
X86758000Y-69656000D02*
X92058000Y-69656000D01*
X84268000Y-69716000D02*
X94548000Y-69716000D01*
X92058000Y-69656000D02*
X92058000Y-44136000D01*
X84268000Y-44076000D02*
X84268000Y-69716000D01*
X94548000Y-69716000D02*
X94548000Y-44076000D01*
X88408000Y-44136000D02*
G75*
G03*
X90408000Y-44136000I1000000J0D01*
G01*
%TO.C,CP1*%
X142588349Y-40279000D02*
X142588349Y-43029000D01*
X143428349Y-45109000D02*
X143428349Y-47407000D01*
X141507349Y-40012000D02*
X141507349Y-48126000D01*
X142868349Y-45109000D02*
X142868349Y-47735000D01*
X144028349Y-45109000D02*
X144028349Y-46895000D01*
X144308349Y-41564000D02*
X144308349Y-43029000D01*
X143908349Y-45109000D02*
X143908349Y-47014000D01*
X144148349Y-45109000D02*
X144148349Y-46766000D01*
X144028349Y-41243000D02*
X144028349Y-43029000D01*
X142508349Y-40248000D02*
X142508349Y-47890000D01*
X144188349Y-41418000D02*
X144188349Y-43029000D01*
X142068349Y-40112000D02*
X142068349Y-48026000D01*
X142588349Y-45109000D02*
X142588349Y-47859000D01*
X141427349Y-40004000D02*
X141427349Y-48134000D01*
X143668349Y-45109000D02*
X143668349Y-47225000D01*
X143028349Y-40485000D02*
X143028349Y-43029000D01*
X143748349Y-40979000D02*
X143748349Y-43029000D01*
X143508349Y-45109000D02*
X143508349Y-47349000D01*
X144108349Y-45109000D02*
X144108349Y-46810000D01*
X143188349Y-45109000D02*
X143188349Y-47562000D01*
X144228349Y-45109000D02*
X144228349Y-46673000D01*
X142628349Y-45109000D02*
X142628349Y-47843000D01*
X144348349Y-41615000D02*
X144348349Y-43029000D01*
X141467349Y-40008000D02*
X141467349Y-48130000D01*
X142748349Y-40347000D02*
X142748349Y-43029000D01*
X144108349Y-41328000D02*
X144108349Y-43029000D01*
X142988349Y-45109000D02*
X142988349Y-47675000D01*
X144828349Y-42424000D02*
X144828349Y-45714000D01*
X141067349Y-39989000D02*
X141067349Y-48149000D01*
X142548349Y-40264000D02*
X142548349Y-43029000D01*
X143308349Y-45109000D02*
X143308349Y-47487000D01*
X143948349Y-41162000D02*
X143948349Y-43029000D01*
X143428349Y-40731000D02*
X143428349Y-43029000D01*
X143228349Y-40600000D02*
X143228349Y-43029000D01*
X142868349Y-40403000D02*
X142868349Y-43029000D01*
X142348349Y-40192000D02*
X142348349Y-47946000D01*
X144428349Y-45109000D02*
X144428349Y-46414000D01*
X142828349Y-45109000D02*
X142828349Y-47755000D01*
X143468349Y-40760000D02*
X143468349Y-43029000D01*
X143868349Y-45109000D02*
X143868349Y-47052000D01*
X143908349Y-41124000D02*
X143908349Y-43029000D01*
X143148349Y-40552000D02*
X143148349Y-43029000D01*
X142628349Y-40295000D02*
X142628349Y-43029000D01*
X143268349Y-45109000D02*
X143268349Y-47513000D01*
X144348349Y-45109000D02*
X144348349Y-46523000D01*
X141908349Y-40075000D02*
X141908349Y-48063000D01*
X141227349Y-39992000D02*
X141227349Y-48146000D01*
X142988349Y-40463000D02*
X142988349Y-43029000D01*
X142268349Y-40167000D02*
X142268349Y-47971000D01*
X141187349Y-39990000D02*
X141187349Y-48148000D01*
X144468349Y-45109000D02*
X144468349Y-46356000D01*
X144068349Y-41285000D02*
X144068349Y-43029000D01*
X141667349Y-40032000D02*
X141667349Y-48106000D01*
X144228349Y-41465000D02*
X144228349Y-43029000D01*
X143548349Y-45109000D02*
X143548349Y-47319000D01*
X143988349Y-41202000D02*
X143988349Y-43029000D01*
X141147349Y-39989000D02*
X141147349Y-48149000D01*
X144268349Y-45109000D02*
X144268349Y-46625000D01*
X144748349Y-42256000D02*
X144748349Y-45882000D01*
X144988349Y-42840000D02*
X144988349Y-45298000D01*
X143268349Y-40625000D02*
X143268349Y-43029000D01*
X141587349Y-40021000D02*
X141587349Y-48117000D01*
X144628349Y-42035000D02*
X144628349Y-46103000D01*
X143108349Y-40529000D02*
X143108349Y-43029000D01*
X143668349Y-40913000D02*
X143668349Y-43029000D01*
X143068349Y-45109000D02*
X143068349Y-47631000D01*
X144468349Y-41782000D02*
X144468349Y-43029000D01*
X143348349Y-45109000D02*
X143348349Y-47461000D01*
X141747349Y-40045000D02*
X141747349Y-48093000D01*
X143788349Y-41014000D02*
X143788349Y-43029000D01*
X143548349Y-40819000D02*
X143548349Y-43029000D01*
X141868349Y-40067000D02*
X141868349Y-48071000D01*
X145028349Y-42971000D02*
X145028349Y-45167000D01*
X143628349Y-45109000D02*
X143628349Y-47258000D01*
X141828349Y-40059000D02*
X141828349Y-48079000D01*
X141948349Y-40084000D02*
X141948349Y-48054000D01*
X144908349Y-42616000D02*
X144908349Y-45522000D01*
X143388349Y-40704000D02*
X143388349Y-43029000D01*
X143028349Y-45109000D02*
X143028349Y-47653000D01*
X144268349Y-41513000D02*
X144268349Y-43029000D01*
X143188349Y-40576000D02*
X143188349Y-43029000D01*
X142388349Y-40206000D02*
X142388349Y-47932000D01*
X143708349Y-45109000D02*
X143708349Y-47193000D01*
X142428349Y-40219000D02*
X142428349Y-47919000D01*
X142548349Y-45109000D02*
X142548349Y-47874000D01*
X144708349Y-42179000D02*
X144708349Y-45959000D01*
X142188349Y-40144000D02*
X142188349Y-47994000D01*
X145108349Y-43301000D02*
X145108349Y-44837000D01*
X143508349Y-40789000D02*
X143508349Y-43029000D01*
X144868349Y-42517000D02*
X144868349Y-45621000D01*
X143988349Y-45109000D02*
X143988349Y-46936000D01*
X145148349Y-43536000D02*
X145148349Y-44602000D01*
X143788349Y-45109000D02*
X143788349Y-47124000D01*
X143708349Y-40945000D02*
X143708349Y-43029000D01*
X141707349Y-40039000D02*
X141707349Y-48099000D01*
X142308349Y-40180000D02*
X142308349Y-47958000D01*
X144388349Y-45109000D02*
X144388349Y-46469000D01*
X141788349Y-40052000D02*
X141788349Y-48086000D01*
X141307349Y-39995000D02*
X141307349Y-48143000D01*
X142708349Y-45109000D02*
X142708349Y-47809000D01*
X141547349Y-40017000D02*
X141547349Y-48121000D01*
X142228349Y-40155000D02*
X142228349Y-47983000D01*
X144668349Y-42105000D02*
X144668349Y-46033000D01*
X143588349Y-45109000D02*
X143588349Y-47289000D01*
X142908349Y-40422000D02*
X142908349Y-43029000D01*
X143868349Y-41086000D02*
X143868349Y-43029000D01*
X142468349Y-40234000D02*
X142468349Y-47904000D01*
X144068349Y-45109000D02*
X144068349Y-46853000D01*
X144188349Y-45109000D02*
X144188349Y-46720000D01*
X136657651Y-41754000D02*
X137457651Y-41754000D01*
X144308349Y-45109000D02*
X144308349Y-46574000D01*
X143828349Y-41050000D02*
X143828349Y-43029000D01*
X143948349Y-45109000D02*
X143948349Y-46976000D01*
X142828349Y-40383000D02*
X142828349Y-43029000D01*
X143468349Y-45109000D02*
X143468349Y-47378000D01*
X141387349Y-40001000D02*
X141387349Y-48137000D01*
X144588349Y-41967000D02*
X144588349Y-43029000D01*
X142668349Y-40312000D02*
X142668349Y-43029000D01*
X142948349Y-40442000D02*
X142948349Y-43029000D01*
X141267349Y-39993000D02*
X141267349Y-48145000D01*
X143388349Y-45109000D02*
X143388349Y-47434000D01*
X144508349Y-41841000D02*
X144508349Y-43029000D01*
X143828349Y-45109000D02*
X143828349Y-47088000D01*
X143108349Y-45109000D02*
X143108349Y-47609000D01*
X145068349Y-43121000D02*
X145068349Y-45017000D01*
X142748349Y-45109000D02*
X142748349Y-47791000D01*
X143748349Y-45109000D02*
X143748349Y-47159000D01*
X142788349Y-40365000D02*
X142788349Y-43029000D01*
X141988349Y-40093000D02*
X141988349Y-48045000D01*
X144548349Y-45109000D02*
X144548349Y-46235000D01*
X142028349Y-40102000D02*
X142028349Y-48036000D01*
X142148349Y-40133000D02*
X142148349Y-48005000D01*
X142668349Y-45109000D02*
X142668349Y-47826000D01*
X143228349Y-45109000D02*
X143228349Y-47538000D01*
X143308349Y-40651000D02*
X143308349Y-43029000D01*
X137057651Y-41354000D02*
X137057651Y-42154000D01*
X141107349Y-39989000D02*
X141107349Y-48149000D01*
X142908349Y-45109000D02*
X142908349Y-47716000D01*
X143348349Y-40677000D02*
X143348349Y-43029000D01*
X141627349Y-40027000D02*
X141627349Y-48111000D01*
X144788349Y-42338000D02*
X144788349Y-45800000D01*
X143628349Y-40880000D02*
X143628349Y-43029000D01*
X143148349Y-45109000D02*
X143148349Y-47586000D01*
X141347349Y-39998000D02*
X141347349Y-48140000D01*
X142708349Y-40329000D02*
X142708349Y-43029000D01*
X143068349Y-40507000D02*
X143068349Y-43029000D01*
X142948349Y-45109000D02*
X142948349Y-47696000D01*
X142108349Y-40122000D02*
X142108349Y-48016000D01*
X144948349Y-42723000D02*
X144948349Y-45415000D01*
X144508349Y-45109000D02*
X144508349Y-46297000D01*
X144428349Y-41724000D02*
X144428349Y-43029000D01*
X144548349Y-41903000D02*
X144548349Y-43029000D01*
X144388349Y-41669000D02*
X144388349Y-43029000D01*
X142788349Y-45109000D02*
X142788349Y-47773000D01*
X144588349Y-45109000D02*
X144588349Y-46171000D01*
X143588349Y-40849000D02*
X143588349Y-43029000D01*
X144148349Y-41372000D02*
X144148349Y-43029000D01*
X145187349Y-44069000D02*
G75*
G03*
X145187349Y-44069000I-4120000J0D01*
G01*
%TO.C,C4*%
X102145752Y-71538000D02*
X100723248Y-71538000D01*
X102145752Y-74258000D02*
X100723248Y-74258000D01*
%TD*%
M02*
