M48
; DRILL file {KiCad (6.0.8-1)-1} date 2023 September 26, Tuesday 17:12:25
; FORMAT={-:-/ absolute / inch / decimal}
; #@! TF.CreationDate,2023-09-26T17:12:25+03:00
; #@! TF.GenerationSoftware,Kicad,Pcbnew,(6.0.8-1)-1
; #@! TF.FileFunction,Plated,1,2,PTH
FMAT,2
INCH
; #@! TA.AperFunction,Plated,PTH,ViaDrill
T1C0.0157
; #@! TA.AperFunction,Plated,PTH,ComponentDrill
T2C0.0315
; #@! TA.AperFunction,Plated,PTH,ComponentDrill
T3C0.0394
%
G90
G05
T1
X3.67Y-1.65
X3.7625Y-3.745
X3.805Y-2.835
X3.805Y-4.645
X3.855Y-2.98
X3.855Y-3.545
X3.86Y-2.865
X3.92Y-3.02
X3.92Y-3.845
X4.16Y-2.825
X4.285Y-2.865
X4.355Y-1.835
X4.355Y-2.825
X4.455Y-3.535
X4.835Y-3.495
X4.835Y-4.065
X4.835Y-4.83
X5.03Y-4.3
X5.03Y-4.79
X5.075Y-3.67
X5.14Y-5.005
X5.16Y-2.73
X5.19Y-5.145
X5.42Y-5.05
T2
X3.37Y-1.79
X3.37Y-1.89
X3.37Y-1.99
X3.37Y-2.09
X3.37Y-2.19
X3.37Y-2.29
X3.37Y-2.39
X3.37Y-2.49
X3.37Y-2.59
X3.37Y-2.69
X3.67Y-1.79
X3.67Y-1.89
X3.67Y-1.99
X3.67Y-2.09
X3.67Y-2.19
X3.67Y-2.29
X3.67Y-2.39
X3.67Y-2.49
X3.67Y-2.59
X3.67Y-2.69
X3.6848Y-2.9954
X3.6848Y-3.0954
X3.6848Y-3.1954
X3.6848Y-3.2954
X3.6848Y-3.3954
X3.6848Y-3.4954
X3.6848Y-3.5954
X3.6848Y-3.6954
X3.6848Y-3.7954
X3.6848Y-3.8954
X3.6848Y-3.9954
X3.6848Y-4.0954
X3.6848Y-4.1954
X3.6848Y-4.2954
X3.6848Y-4.3954
X3.6848Y-4.4954
X3.6848Y-4.5954
X3.6848Y-4.6954
X3.6848Y-4.7954
X3.6848Y-4.8954
X3.6848Y-4.9954
X3.6848Y-5.0954
X3.6848Y-5.1954
X3.6848Y-5.2954
X3.83Y-1.8894
X3.83Y-1.9894
X3.83Y-2.0894
X3.83Y-2.1894
X3.83Y-2.2894
X3.83Y-2.3894
X3.83Y-2.4894
X3.83Y-2.5894
X3.83Y-2.6894
X3.9854Y-1.9896
X3.9854Y-2.0896
X3.9854Y-2.1896
X3.9854Y-2.2896
X3.9854Y-2.3896
X3.9854Y-2.4896
X3.9854Y-2.5896
X3.9854Y-2.6896
X4.2848Y-2.9954
X4.2848Y-3.0954
X4.2848Y-3.1954
X4.2848Y-3.2954
X4.2848Y-3.3954
X4.2848Y-3.4954
X4.2848Y-3.5954
X4.2848Y-3.6954
X4.2848Y-3.7954
X4.2848Y-3.8954
X4.2848Y-3.9954
X4.2848Y-4.0954
X4.2848Y-4.1954
X4.2848Y-4.2954
X4.2848Y-4.3954
X4.2848Y-4.4954
X4.2848Y-4.5954
X4.2848Y-4.6954
X4.2848Y-4.7954
X4.2848Y-4.8954
X4.2848Y-4.9954
X4.2848Y-5.0954
X4.2848Y-5.1954
X4.2848Y-5.2954
X4.2854Y-1.9896
X4.2854Y-2.0896
X4.2854Y-2.1896
X4.2854Y-2.2896
X4.2854Y-2.3896
X4.2854Y-2.4896
X4.2854Y-2.5896
X4.2854Y-2.6896
X4.4404Y-1.9898
X4.4404Y-2.0898
X4.4404Y-2.1898
X4.4404Y-2.2898
X4.4404Y-2.3898
X4.4404Y-2.4898
X4.4404Y-2.5898
X4.7404Y-1.9898
X4.7404Y-2.0898
X4.7404Y-2.1898
X4.7404Y-2.2898
X4.7404Y-2.3898
X4.7404Y-2.4898
X4.7404Y-2.5898
X4.89Y-1.99
X4.89Y-2.09
X4.89Y-2.19
X4.89Y-2.29
X4.89Y-2.39
X4.89Y-2.49
X4.89Y-2.59
X5.19Y-1.99
X5.19Y-2.09
X5.19Y-2.19
X5.19Y-2.29
X5.19Y-2.39
X5.19Y-2.49
X5.19Y-2.59
X5.4554Y-1.735
X5.4577Y-2.53
X5.6523Y-1.735
X5.6546Y-2.53
T3
X2.97Y-1.895
X2.97Y-1.995
X2.97Y-2.095
X2.97Y-2.195
X2.97Y-2.295
X2.97Y-2.395
X2.97Y-2.495
X2.97Y-2.595
X2.97Y-2.695
X2.97Y-2.795
X2.97Y-2.895
X2.97Y-2.995
X2.97Y-3.095
X2.97Y-3.195
X2.97Y-3.295
X2.97Y-3.395
X2.97Y-3.495
X2.97Y-3.595
X2.97Y-3.695
X2.97Y-3.795
X2.97Y-3.895
X2.97Y-3.995
X2.97Y-4.095
X2.97Y-4.195
X2.97Y-4.295
X2.97Y-4.395
X2.97Y-4.495
X2.97Y-4.595
X2.97Y-4.695
X2.97Y-4.795
X2.97Y-4.895
X2.97Y-4.995
X3.17Y-1.895
X3.17Y-1.995
X3.17Y-2.095
X3.17Y-2.195
X3.17Y-2.295
X3.17Y-2.395
X3.17Y-2.495
X3.17Y-2.595
X3.17Y-2.695
X3.17Y-2.795
X3.17Y-2.895
X3.17Y-2.995
X3.17Y-3.095
X3.17Y-3.195
X3.17Y-3.295
X3.17Y-3.395
X3.17Y-3.495
X3.17Y-3.595
X3.17Y-3.695
X3.17Y-3.795
X3.17Y-3.895
X3.17Y-3.995
X3.17Y-4.095
X3.17Y-4.195
X3.17Y-4.295
X3.17Y-4.395
X3.17Y-4.495
X3.17Y-4.595
X3.17Y-4.695
X3.17Y-4.795
X3.17Y-4.895
X3.17Y-4.995
X3.2848Y-3.3952
X3.2848Y-3.4952
X3.3848Y-3.3952
X3.3848Y-3.4952
X4.6198Y-5.34
X4.7198Y-5.34
X5.1898Y-2.8652
X5.1898Y-2.9652
X5.1898Y-3.0652
X5.1898Y-3.1652
X5.1898Y-3.2652
X5.1898Y-3.3652
X5.1898Y-3.4652
X5.1898Y-3.5652
X5.1898Y-3.6652
X5.1898Y-3.7652
X5.1898Y-3.8652
X5.1898Y-3.9652
X5.1898Y-4.0652
X5.1898Y-4.1652
X5.1898Y-4.2652
X5.1898Y-4.3652
X5.1898Y-4.4652
X5.1898Y-4.5652
X5.1898Y-4.6652
X5.1898Y-4.7652
X5.2898Y-2.8652
X5.2898Y-2.9652
X5.2898Y-3.0652
X5.2898Y-3.1652
X5.2898Y-3.2652
X5.2898Y-3.3652
X5.2898Y-3.4652
X5.2898Y-3.5652
X5.2898Y-3.6652
X5.2898Y-3.7652
X5.2898Y-3.8652
X5.2898Y-3.9652
X5.2898Y-4.0652
X5.2898Y-4.1652
X5.2898Y-4.2652
X5.2898Y-4.3652
X5.2898Y-4.4652
X5.2898Y-4.5652
X5.2898Y-4.6652
X5.2898Y-4.7652
X5.5752Y-4.9298
X5.5752Y-5.0298
X5.5752Y-5.1848
X5.5752Y-5.2848
X5.6752Y-4.9298
X5.6752Y-5.0298
X5.6752Y-5.1848
X5.6752Y-5.2848
T0
M30
