%TF.GenerationSoftware,KiCad,Pcbnew,(6.0.8-1)-1*%
%TF.CreationDate,2023-09-26T17:12:20+03:00*%
%TF.ProjectId,A410_Podule_Ram_RPI,41343130-5f50-46f6-9475-6c655f52616d,rev?*%
%TF.SameCoordinates,Original*%
%TF.FileFunction,Paste,Top*%
%TF.FilePolarity,Positive*%
%FSLAX46Y46*%
G04 Gerber Fmt 4.6, Leading zero omitted, Abs format (unit mm)*
G04 Created by KiCad (PCBNEW (6.0.8-1)-1) date 2023-09-26 17:12:20*
%MOMM*%
%LPD*%
G01*
G04 APERTURE LIST*
G04 Aperture macros list*
%AMRoundRect*
0 Rectangle with rounded corners*
0 $1 Rounding radius*
0 $2 $3 $4 $5 $6 $7 $8 $9 X,Y pos of 4 corners*
0 Add a 4 corners polygon primitive as box body*
4,1,4,$2,$3,$4,$5,$6,$7,$8,$9,$2,$3,0*
0 Add four circle primitives for the rounded corners*
1,1,$1+$1,$2,$3*
1,1,$1+$1,$4,$5*
1,1,$1+$1,$6,$7*
1,1,$1+$1,$8,$9*
0 Add four rect primitives between the rounded corners*
20,1,$1+$1,$2,$3,$4,$5,0*
20,1,$1+$1,$4,$5,$6,$7,0*
20,1,$1+$1,$6,$7,$8,$9,0*
20,1,$1+$1,$8,$9,$2,$3,0*%
G04 Aperture macros list end*
%ADD10RoundRect,0.250000X-0.400000X-1.075000X0.400000X-1.075000X0.400000X1.075000X-0.400000X1.075000X0*%
%ADD11RoundRect,0.100000X0.637500X0.100000X-0.637500X0.100000X-0.637500X-0.100000X0.637500X-0.100000X0*%
%ADD12RoundRect,0.250000X-1.100000X0.412500X-1.100000X-0.412500X1.100000X-0.412500X1.100000X0.412500X0*%
%ADD13R,0.650000X1.700000*%
%ADD14R,1.500000X2.000000*%
%ADD15R,3.800000X2.000000*%
%ADD16RoundRect,0.250000X0.412500X1.100000X-0.412500X1.100000X-0.412500X-1.100000X0.412500X-1.100000X0*%
%ADD17RoundRect,0.250000X-0.412500X-1.100000X0.412500X-1.100000X0.412500X1.100000X-0.412500X1.100000X0*%
G04 APERTURE END LIST*
D10*
%TO.C,R3*%
X133578000Y-124714000D03*
X136678000Y-124714000D03*
%TD*%
D11*
%TO.C,U6*%
X121226500Y-109097000D03*
X121226500Y-108447000D03*
X121226500Y-107797000D03*
X121226500Y-107147000D03*
X121226500Y-106497000D03*
X121226500Y-105847000D03*
X121226500Y-105197000D03*
X121226500Y-104547000D03*
X121226500Y-103897000D03*
X121226500Y-103247000D03*
X115501500Y-103247000D03*
X115501500Y-103897000D03*
X115501500Y-104547000D03*
X115501500Y-105197000D03*
X115501500Y-105847000D03*
X115501500Y-106497000D03*
X115501500Y-107147000D03*
X115501500Y-107797000D03*
X115501500Y-108447000D03*
X115501500Y-109097000D03*
%TD*%
D12*
%TO.C,C2*%
X137668000Y-130136500D03*
X137668000Y-133261500D03*
%TD*%
D13*
%TO.C,U8*%
X130556000Y-136111000D03*
X131826000Y-136111000D03*
X133096000Y-136111000D03*
X134366000Y-136111000D03*
X134366000Y-128811000D03*
X133096000Y-128811000D03*
X131826000Y-128811000D03*
X130556000Y-128811000D03*
%TD*%
D11*
%TO.C,U5*%
X121226500Y-128528000D03*
X121226500Y-127878000D03*
X121226500Y-127228000D03*
X121226500Y-126578000D03*
X121226500Y-125928000D03*
X121226500Y-125278000D03*
X121226500Y-124628000D03*
X121226500Y-123978000D03*
X121226500Y-123328000D03*
X121226500Y-122678000D03*
X115501500Y-122678000D03*
X115501500Y-123328000D03*
X115501500Y-123978000D03*
X115501500Y-124628000D03*
X115501500Y-125278000D03*
X115501500Y-125928000D03*
X115501500Y-126578000D03*
X115501500Y-127228000D03*
X115501500Y-127878000D03*
X115501500Y-128528000D03*
%TD*%
D14*
%TO.C,U9*%
X138670000Y-56998000D03*
X140970000Y-56998000D03*
D15*
X140970000Y-50698000D03*
D14*
X143270000Y-56998000D03*
%TD*%
D10*
%TO.C,R2*%
X127889000Y-124714000D03*
X130989000Y-124714000D03*
%TD*%
%TO.C,R4*%
X123672000Y-135001000D03*
X126772000Y-135001000D03*
%TD*%
D11*
%TO.C,U7*%
X121226500Y-90682000D03*
X121226500Y-90032000D03*
X121226500Y-89382000D03*
X121226500Y-88732000D03*
X121226500Y-88082000D03*
X121226500Y-87432000D03*
X121226500Y-86782000D03*
X121226500Y-86132000D03*
X121226500Y-85482000D03*
X121226500Y-84832000D03*
X115501500Y-84832000D03*
X115501500Y-85482000D03*
X115501500Y-86132000D03*
X115501500Y-86782000D03*
X115501500Y-87432000D03*
X115501500Y-88082000D03*
X115501500Y-88732000D03*
X115501500Y-89382000D03*
X115501500Y-90032000D03*
X115501500Y-90682000D03*
%TD*%
D16*
%TO.C,C3*%
X118275500Y-46990000D03*
X115150500Y-46990000D03*
%TD*%
%TO.C,C12*%
X91224500Y-42037000D03*
X88099500Y-42037000D03*
%TD*%
D17*
%TO.C,C7*%
X117055500Y-111887000D03*
X120180500Y-111887000D03*
%TD*%
D16*
%TO.C,C9*%
X127038500Y-93218000D03*
X123913500Y-93218000D03*
%TD*%
%TO.C,C10*%
X127038500Y-111887000D03*
X123913500Y-111887000D03*
%TD*%
%TO.C,C5*%
X129324500Y-47117000D03*
X126199500Y-47117000D03*
%TD*%
D17*
%TO.C,C6*%
X117055500Y-131445000D03*
X120180500Y-131445000D03*
%TD*%
D16*
%TO.C,C11*%
X126784500Y-131445000D03*
X123659500Y-131445000D03*
%TD*%
D17*
%TO.C,C8*%
X117055500Y-93218000D03*
X120180500Y-93218000D03*
%TD*%
D16*
%TO.C,C4*%
X102997000Y-72898000D03*
X99872000Y-72898000D03*
%TD*%
M02*
