%TF.GenerationSoftware,KiCad,Pcbnew,(6.0.8-1)-1*%
%TF.CreationDate,2023-09-26T17:12:29+03:00*%
%TF.ProjectId,A410_Podule_Ram_RPI,41343130-5f50-46f6-9475-6c655f52616d,rev?*%
%TF.SameCoordinates,Original*%
%TF.FileFunction,Drillmap*%
%TF.FilePolarity,Positive*%
%FSLAX45Y45*%
G04 Gerber Fmt 4.5, Leading zero omitted, Abs format (unit mm)*
G04 Created by KiCad (PCBNEW (6.0.8-1)-1) date 2023-09-26 17:12:29*
%MOMM*%
%LPD*%
G01*
G04 APERTURE LIST*
%ADD10C,0.100000*%
%ADD11C,0.200000*%
%ADD12C,0.285000*%
G04 APERTURE END LIST*
D10*
X7010400Y-13766800D02*
X7010400Y-3733800D01*
X15036800Y-13766800D02*
X7010400Y-13766800D01*
X15036800Y-13766800D02*
X15036800Y-3733800D01*
X7010400Y-3733800D02*
X15036800Y-3733800D01*
D11*
D12*
X7147300Y-4162800D02*
X7432300Y-4447800D01*
X7432300Y-4162800D02*
X7147300Y-4447800D01*
X7147300Y-13052800D02*
X7432300Y-13337800D01*
X7432300Y-13052800D02*
X7147300Y-13337800D01*
D11*
X7263019Y-14082276D02*
X7263019Y-13882276D01*
X7310638Y-13882276D01*
X7339209Y-13891800D01*
X7358257Y-13910848D01*
X7367781Y-13929895D01*
X7377305Y-13967990D01*
X7377305Y-13996562D01*
X7367781Y-14034657D01*
X7358257Y-14053705D01*
X7339209Y-14072752D01*
X7310638Y-14082276D01*
X7263019Y-14082276D01*
X7463019Y-14082276D02*
X7463019Y-13948943D01*
X7463019Y-13987038D02*
X7472543Y-13967990D01*
X7482067Y-13958467D01*
X7501114Y-13948943D01*
X7520162Y-13948943D01*
X7586828Y-14082276D02*
X7586828Y-13948943D01*
X7586828Y-13882276D02*
X7577305Y-13891800D01*
X7586828Y-13901324D01*
X7596352Y-13891800D01*
X7586828Y-13882276D01*
X7586828Y-13901324D01*
X7710638Y-14082276D02*
X7691590Y-14072752D01*
X7682067Y-14053705D01*
X7682067Y-13882276D01*
X7815400Y-14082276D02*
X7796352Y-14072752D01*
X7786828Y-14053705D01*
X7786828Y-13882276D01*
X8043971Y-14082276D02*
X8043971Y-13882276D01*
X8110638Y-14025133D01*
X8177305Y-13882276D01*
X8177305Y-14082276D01*
X8358257Y-14082276D02*
X8358257Y-13977514D01*
X8348733Y-13958467D01*
X8329686Y-13948943D01*
X8291590Y-13948943D01*
X8272543Y-13958467D01*
X8358257Y-14072752D02*
X8339209Y-14082276D01*
X8291590Y-14082276D01*
X8272543Y-14072752D01*
X8263019Y-14053705D01*
X8263019Y-14034657D01*
X8272543Y-14015609D01*
X8291590Y-14006086D01*
X8339209Y-14006086D01*
X8358257Y-13996562D01*
X8453495Y-13948943D02*
X8453495Y-14148943D01*
X8453495Y-13958467D02*
X8472543Y-13948943D01*
X8510638Y-13948943D01*
X8529686Y-13958467D01*
X8539210Y-13967990D01*
X8548733Y-13987038D01*
X8548733Y-14044181D01*
X8539210Y-14063228D01*
X8529686Y-14072752D01*
X8510638Y-14082276D01*
X8472543Y-14082276D01*
X8453495Y-14072752D01*
X8634448Y-14063228D02*
X8643971Y-14072752D01*
X8634448Y-14082276D01*
X8624924Y-14072752D01*
X8634448Y-14063228D01*
X8634448Y-14082276D01*
X8634448Y-13958467D02*
X8643971Y-13967990D01*
X8634448Y-13977514D01*
X8624924Y-13967990D01*
X8634448Y-13958467D01*
X8634448Y-13977514D01*
X6805400Y-14311800D02*
X7005400Y-14511800D01*
X7005400Y-14311800D02*
X6805400Y-14511800D01*
X7253495Y-14321324D02*
X7263019Y-14311800D01*
X7282067Y-14302276D01*
X7329686Y-14302276D01*
X7348733Y-14311800D01*
X7358257Y-14321324D01*
X7367781Y-14340371D01*
X7367781Y-14359419D01*
X7358257Y-14387990D01*
X7243971Y-14502276D01*
X7367781Y-14502276D01*
X7453495Y-14483228D02*
X7463019Y-14492752D01*
X7453495Y-14502276D01*
X7443971Y-14492752D01*
X7453495Y-14483228D01*
X7453495Y-14502276D01*
X7577305Y-14387990D02*
X7558257Y-14378467D01*
X7548733Y-14368943D01*
X7539209Y-14349895D01*
X7539209Y-14340371D01*
X7548733Y-14321324D01*
X7558257Y-14311800D01*
X7577305Y-14302276D01*
X7615400Y-14302276D01*
X7634448Y-14311800D01*
X7643971Y-14321324D01*
X7653495Y-14340371D01*
X7653495Y-14349895D01*
X7643971Y-14368943D01*
X7634448Y-14378467D01*
X7615400Y-14387990D01*
X7577305Y-14387990D01*
X7558257Y-14397514D01*
X7548733Y-14407038D01*
X7539209Y-14426086D01*
X7539209Y-14464181D01*
X7548733Y-14483228D01*
X7558257Y-14492752D01*
X7577305Y-14502276D01*
X7615400Y-14502276D01*
X7634448Y-14492752D01*
X7643971Y-14483228D01*
X7653495Y-14464181D01*
X7653495Y-14426086D01*
X7643971Y-14407038D01*
X7634448Y-14397514D01*
X7615400Y-14387990D01*
X7834448Y-14302276D02*
X7739209Y-14302276D01*
X7729686Y-14397514D01*
X7739209Y-14387990D01*
X7758257Y-14378467D01*
X7805876Y-14378467D01*
X7824924Y-14387990D01*
X7834448Y-14397514D01*
X7843971Y-14416562D01*
X7843971Y-14464181D01*
X7834448Y-14483228D01*
X7824924Y-14492752D01*
X7805876Y-14502276D01*
X7758257Y-14502276D01*
X7739209Y-14492752D01*
X7729686Y-14483228D01*
X7967781Y-14302276D02*
X7986828Y-14302276D01*
X8005876Y-14311800D01*
X8015400Y-14321324D01*
X8024924Y-14340371D01*
X8034448Y-14378467D01*
X8034448Y-14426086D01*
X8024924Y-14464181D01*
X8015400Y-14483228D01*
X8005876Y-14492752D01*
X7986828Y-14502276D01*
X7967781Y-14502276D01*
X7948733Y-14492752D01*
X7939209Y-14483228D01*
X7929686Y-14464181D01*
X7920162Y-14426086D01*
X7920162Y-14378467D01*
X7929686Y-14340371D01*
X7939209Y-14321324D01*
X7948733Y-14311800D01*
X7967781Y-14302276D01*
X8120162Y-14502276D02*
X8120162Y-14368943D01*
X8120162Y-14387990D02*
X8129686Y-14378467D01*
X8148733Y-14368943D01*
X8177305Y-14368943D01*
X8196352Y-14378467D01*
X8205876Y-14397514D01*
X8205876Y-14502276D01*
X8205876Y-14397514D02*
X8215400Y-14378467D01*
X8234448Y-14368943D01*
X8263019Y-14368943D01*
X8282067Y-14378467D01*
X8291590Y-14397514D01*
X8291590Y-14502276D01*
X8386828Y-14502276D02*
X8386828Y-14368943D01*
X8386828Y-14387990D02*
X8396352Y-14378467D01*
X8415400Y-14368943D01*
X8443971Y-14368943D01*
X8463019Y-14378467D01*
X8472543Y-14397514D01*
X8472543Y-14502276D01*
X8472543Y-14397514D02*
X8482067Y-14378467D01*
X8501114Y-14368943D01*
X8529686Y-14368943D01*
X8548733Y-14378467D01*
X8558257Y-14397514D01*
X8558257Y-14502276D01*
X8948733Y-14292752D02*
X8777305Y-14549895D01*
X9205876Y-14302276D02*
X9224924Y-14302276D01*
X9243971Y-14311800D01*
X9253495Y-14321324D01*
X9263019Y-14340371D01*
X9272543Y-14378467D01*
X9272543Y-14426086D01*
X9263019Y-14464181D01*
X9253495Y-14483228D01*
X9243971Y-14492752D01*
X9224924Y-14502276D01*
X9205876Y-14502276D01*
X9186829Y-14492752D01*
X9177305Y-14483228D01*
X9167781Y-14464181D01*
X9158257Y-14426086D01*
X9158257Y-14378467D01*
X9167781Y-14340371D01*
X9177305Y-14321324D01*
X9186829Y-14311800D01*
X9205876Y-14302276D01*
X9358257Y-14483228D02*
X9367781Y-14492752D01*
X9358257Y-14502276D01*
X9348733Y-14492752D01*
X9358257Y-14483228D01*
X9358257Y-14502276D01*
X9558257Y-14502276D02*
X9443971Y-14502276D01*
X9501114Y-14502276D02*
X9501114Y-14302276D01*
X9482067Y-14330848D01*
X9463019Y-14349895D01*
X9443971Y-14359419D01*
X9748733Y-14502276D02*
X9634448Y-14502276D01*
X9691590Y-14502276D02*
X9691590Y-14302276D01*
X9672543Y-14330848D01*
X9653495Y-14349895D01*
X9634448Y-14359419D01*
X9824924Y-14321324D02*
X9834448Y-14311800D01*
X9853495Y-14302276D01*
X9901114Y-14302276D01*
X9920162Y-14311800D01*
X9929686Y-14321324D01*
X9939210Y-14340371D01*
X9939210Y-14359419D01*
X9929686Y-14387990D01*
X9815400Y-14502276D01*
X9939210Y-14502276D01*
X10015400Y-14321324D02*
X10024924Y-14311800D01*
X10043971Y-14302276D01*
X10091590Y-14302276D01*
X10110638Y-14311800D01*
X10120162Y-14321324D01*
X10129686Y-14340371D01*
X10129686Y-14359419D01*
X10120162Y-14387990D01*
X10005876Y-14502276D01*
X10129686Y-14502276D01*
X10205876Y-14302276D02*
X10205876Y-14340371D01*
X10282067Y-14302276D02*
X10282067Y-14340371D01*
X10577305Y-14578467D02*
X10567781Y-14568943D01*
X10548733Y-14540371D01*
X10539210Y-14521324D01*
X10529686Y-14492752D01*
X10520162Y-14445133D01*
X10520162Y-14407038D01*
X10529686Y-14359419D01*
X10539210Y-14330848D01*
X10548733Y-14311800D01*
X10567781Y-14283228D01*
X10577305Y-14273705D01*
X10643971Y-14321324D02*
X10653495Y-14311800D01*
X10672543Y-14302276D01*
X10720162Y-14302276D01*
X10739210Y-14311800D01*
X10748733Y-14321324D01*
X10758257Y-14340371D01*
X10758257Y-14359419D01*
X10748733Y-14387990D01*
X10634448Y-14502276D01*
X10758257Y-14502276D01*
X10996352Y-14502276D02*
X10996352Y-14302276D01*
X11082067Y-14502276D02*
X11082067Y-14397514D01*
X11072543Y-14378467D01*
X11053495Y-14368943D01*
X11024924Y-14368943D01*
X11005876Y-14378467D01*
X10996352Y-14387990D01*
X11205876Y-14502276D02*
X11186828Y-14492752D01*
X11177305Y-14483228D01*
X11167781Y-14464181D01*
X11167781Y-14407038D01*
X11177305Y-14387990D01*
X11186828Y-14378467D01*
X11205876Y-14368943D01*
X11234448Y-14368943D01*
X11253495Y-14378467D01*
X11263019Y-14387990D01*
X11272543Y-14407038D01*
X11272543Y-14464181D01*
X11263019Y-14483228D01*
X11253495Y-14492752D01*
X11234448Y-14502276D01*
X11205876Y-14502276D01*
X11386828Y-14502276D02*
X11367781Y-14492752D01*
X11358257Y-14473705D01*
X11358257Y-14302276D01*
X11539209Y-14492752D02*
X11520162Y-14502276D01*
X11482067Y-14502276D01*
X11463019Y-14492752D01*
X11453495Y-14473705D01*
X11453495Y-14397514D01*
X11463019Y-14378467D01*
X11482067Y-14368943D01*
X11520162Y-14368943D01*
X11539209Y-14378467D01*
X11548733Y-14397514D01*
X11548733Y-14416562D01*
X11453495Y-14435609D01*
X11624924Y-14492752D02*
X11643971Y-14502276D01*
X11682067Y-14502276D01*
X11701114Y-14492752D01*
X11710638Y-14473705D01*
X11710638Y-14464181D01*
X11701114Y-14445133D01*
X11682067Y-14435609D01*
X11653495Y-14435609D01*
X11634448Y-14426086D01*
X11624924Y-14407038D01*
X11624924Y-14397514D01*
X11634448Y-14378467D01*
X11653495Y-14368943D01*
X11682067Y-14368943D01*
X11701114Y-14378467D01*
X11777305Y-14578467D02*
X11786828Y-14568943D01*
X11805876Y-14540371D01*
X11815400Y-14521324D01*
X11824924Y-14492752D01*
X11834448Y-14445133D01*
X11834448Y-14407038D01*
X11824924Y-14359419D01*
X11815400Y-14330848D01*
X11805876Y-14311800D01*
X11786828Y-14283228D01*
X11777305Y-14273705D01*
X12139209Y-14578467D02*
X12129686Y-14568943D01*
X12110638Y-14540371D01*
X12101114Y-14521324D01*
X12091590Y-14492752D01*
X12082067Y-14445133D01*
X12082067Y-14407038D01*
X12091590Y-14359419D01*
X12101114Y-14330848D01*
X12110638Y-14311800D01*
X12129686Y-14283228D01*
X12139209Y-14273705D01*
X12215400Y-14368943D02*
X12215400Y-14502276D01*
X12215400Y-14387990D02*
X12224924Y-14378467D01*
X12243971Y-14368943D01*
X12272543Y-14368943D01*
X12291590Y-14378467D01*
X12301114Y-14397514D01*
X12301114Y-14502276D01*
X12424924Y-14502276D02*
X12405876Y-14492752D01*
X12396352Y-14483228D01*
X12386828Y-14464181D01*
X12386828Y-14407038D01*
X12396352Y-14387990D01*
X12405876Y-14378467D01*
X12424924Y-14368943D01*
X12453495Y-14368943D01*
X12472543Y-14378467D01*
X12482067Y-14387990D01*
X12491590Y-14407038D01*
X12491590Y-14464181D01*
X12482067Y-14483228D01*
X12472543Y-14492752D01*
X12453495Y-14502276D01*
X12424924Y-14502276D01*
X12548733Y-14368943D02*
X12624924Y-14368943D01*
X12577305Y-14302276D02*
X12577305Y-14473705D01*
X12586828Y-14492752D01*
X12605876Y-14502276D01*
X12624924Y-14502276D01*
X12843971Y-14368943D02*
X12843971Y-14568943D01*
X12843971Y-14378467D02*
X12863019Y-14368943D01*
X12901114Y-14368943D01*
X12920162Y-14378467D01*
X12929686Y-14387990D01*
X12939209Y-14407038D01*
X12939209Y-14464181D01*
X12929686Y-14483228D01*
X12920162Y-14492752D01*
X12901114Y-14502276D01*
X12863019Y-14502276D01*
X12843971Y-14492752D01*
X13053495Y-14502276D02*
X13034448Y-14492752D01*
X13024924Y-14473705D01*
X13024924Y-14302276D01*
X13215400Y-14502276D02*
X13215400Y-14397514D01*
X13205876Y-14378467D01*
X13186828Y-14368943D01*
X13148733Y-14368943D01*
X13129686Y-14378467D01*
X13215400Y-14492752D02*
X13196352Y-14502276D01*
X13148733Y-14502276D01*
X13129686Y-14492752D01*
X13120162Y-14473705D01*
X13120162Y-14454657D01*
X13129686Y-14435609D01*
X13148733Y-14426086D01*
X13196352Y-14426086D01*
X13215400Y-14416562D01*
X13282067Y-14368943D02*
X13358257Y-14368943D01*
X13310638Y-14302276D02*
X13310638Y-14473705D01*
X13320162Y-14492752D01*
X13339209Y-14502276D01*
X13358257Y-14502276D01*
X13501114Y-14492752D02*
X13482067Y-14502276D01*
X13443971Y-14502276D01*
X13424924Y-14492752D01*
X13415400Y-14473705D01*
X13415400Y-14397514D01*
X13424924Y-14378467D01*
X13443971Y-14368943D01*
X13482067Y-14368943D01*
X13501114Y-14378467D01*
X13510638Y-14397514D01*
X13510638Y-14416562D01*
X13415400Y-14435609D01*
X13682067Y-14502276D02*
X13682067Y-14302276D01*
X13682067Y-14492752D02*
X13663019Y-14502276D01*
X13624924Y-14502276D01*
X13605876Y-14492752D01*
X13596352Y-14483228D01*
X13586828Y-14464181D01*
X13586828Y-14407038D01*
X13596352Y-14387990D01*
X13605876Y-14378467D01*
X13624924Y-14368943D01*
X13663019Y-14368943D01*
X13682067Y-14378467D01*
X13758257Y-14578467D02*
X13767781Y-14568943D01*
X13786828Y-14540371D01*
X13796352Y-14521324D01*
X13805876Y-14492752D01*
X13815400Y-14445133D01*
X13815400Y-14407038D01*
X13805876Y-14359419D01*
X13796352Y-14330848D01*
X13786828Y-14311800D01*
X13767781Y-14283228D01*
X13758257Y-14273705D01*
M02*
